<?xml version="1.0" standalone="no"?>
<!DOCTYPE svg PUBLIC "-//W3C//DTD SVG 20010904//EN"
 "http://www.w3.org/TR/2001/REC-SVG-20010904/DTD/svg10.dtd">
<svg version="1.0" xmlns="http://www.w3.org/2000/svg"
 width="1280.000000pt" height="1047.000000pt" viewBox="0 0 1280.000000 1047.000000"
 preserveAspectRatio="xMidYMid meet">
<metadata>
Created by potrace 1.15, written by Peter Selinger 2001-2017
</metadata>
<g transform="translate(0.000000,1047.000000) scale(0.100000,-0.100000)"
fill="#000000" stroke="none">
<path d="M11201 10407 c-42 -92 -58 -153 -75 -285 -9 -64 -17 -130 -20 -147
-2 -16 -2 56 1 160 3 147 1 184 -8 165 -8 -18 -10 -117 -7 -335 6 -369 -3
-513 -16 -285 -5 80 -10 161 -12 180 -2 19 -7 100 -10 179 -4 80 -10 136 -14
125 -6 -17 1 -203 15 -399 11 -138 12 -276 2 -266 -4 4 -10 33 -12 63 -3 51
-21 106 -31 95 -2 -2 1 -27 8 -56 8 -37 9 -54 1 -62 -8 -8 -17 9 -33 62 -11
41 -28 98 -37 127 -13 42 -15 77 -10 170 4 64 9 135 12 157 5 37 4 38 -5 10
-5 -16 -13 -78 -16 -137 -4 -59 -11 -105 -15 -102 -5 3 -9 19 -9 35 0 16 -8
46 -18 67 -21 41 -35 107 -56 262 -14 99 -11 178 8 208 10 17 -9 15 -24 -3
-14 -17 -8 -179 9 -275 6 -30 13 -77 17 -105 4 -27 13 -59 20 -70 8 -11 14
-28 14 -38 0 -10 20 -78 44 -150 24 -73 47 -145 50 -162 6 -27 5 -28 -7 -12
-8 9 -17 17 -20 17 -4 0 -4 -8 0 -17 4 -13 -3 -10 -23 9 -16 15 -45 34 -64 43
-63 30 -75 38 -104 72 l-29 35 28 56 c35 72 46 110 34 117 -5 4 -9 -2 -9 -12
0 -10 -11 -35 -25 -55 -13 -20 -32 -54 -41 -77 -16 -41 -31 -50 -50 -31 -6 6
-30 20 -55 33 -52 26 -65 50 -87 156 l-16 78 32 50 c34 52 38 63 23 63 -5 0
-23 -23 -41 -50 -32 -50 -33 -52 -22 -118 5 -37 13 -78 18 -92 6 -19 -5 -12
-47 30 -30 30 -73 78 -97 105 -26 31 -42 44 -42 33 0 -19 50 -81 111 -138 24
-22 40 -40 35 -40 -8 0 -24 11 -118 85 -32 25 -58 42 -58 37 0 -11 56 -63 100
-93 19 -13 42 -31 51 -39 9 -8 59 -46 112 -85 96 -71 118 -101 47 -65 -22 11
-44 20 -51 20 -37 0 -180 121 -246 207 -14 18 -29 30 -35 27 -9 -6 58 -92 114
-148 33 -32 30 -46 -4 -24 -28 19 -105 95 -118 117 -8 14 -9 14 -10 1 0 -24
36 -76 69 -101 17 -12 28 -26 25 -30 -6 -10 -35 7 -128 78 -38 29 -72 51 -74
48 -10 -10 43 -57 118 -106 41 -27 80 -54 87 -59 7 -6 18 -10 25 -10 34 -1 65
-45 82 -115 l8 -30 -26 24 c-14 13 -28 35 -31 50 -7 32 -32 67 -42 58 -3 -4
-1 -18 6 -31 19 -36 10 -51 -16 -26 -12 11 -27 20 -33 20 -22 0 -7 -18 44 -54
52 -36 93 -82 83 -93 -6 -6 -104 43 -112 57 -3 6 -21 17 -38 24 -51 23 -145
103 -149 128 -4 22 -5 22 -13 4 -7 -16 3 -30 56 -78 35 -32 88 -72 118 -89 29
-17 51 -32 49 -35 -7 -7 -70 17 -100 38 -14 10 -34 18 -44 18 -10 0 -28 12
-40 28 -12 15 -26 24 -30 20 -24 -25 168 -131 259 -143 62 -9 102 -28 118 -56
15 -30 7 -32 -45 -15 -26 9 -53 16 -61 16 -8 0 -15 6 -15 14 0 8 -7 17 -16 20
-20 8 -25 8 -21 -1 6 -21 -44 -12 -73 11 -34 28 -109 66 -114 58 -4 -8 50 -54
103 -87 9 -5 35 -27 58 -47 24 -21 49 -38 58 -38 8 0 15 -4 15 -10 0 -28 -83
18 -158 88 -7 6 -18 12 -24 12 -16 0 13 -30 54 -56 21 -14 38 -29 38 -35 0
-15 -73 -4 -141 22 -78 30 -89 32 -89 22 0 -18 179 -69 249 -71 13 -1 31 -8
40 -16 10 -9 23 -16 29 -16 30 0 18 -22 -22 -40 -25 -10 -46 -24 -46 -30 0 -6
15 -4 38 6 138 60 129 57 177 44 47 -13 57 -25 28 -33 -11 -3 -5 -5 11 -6 17
-1 26 -5 20 -9 -11 -11 -106 -47 -154 -61 -22 -6 -27 -10 -14 -10 12 -1 68 14
125 33 110 37 209 58 209 46 0 -9 -119 -40 -155 -40 -14 0 -25 -4 -25 -8 0
-11 88 2 197 29 45 11 88 19 95 18 7 -1 20 0 28 4 45 17 114 36 117 33 6 -6
-26 -103 -64 -195 -33 -80 -86 -219 -102 -271 -5 -14 -22 -52 -38 -85 -17 -33
-34 -71 -38 -85 -4 -14 -22 -57 -41 -95 -18 -39 -49 -109 -69 -155 -21 -47
-53 -121 -72 -165 -19 -44 -44 -102 -54 -130 -11 -27 -30 -70 -43 -95 -13 -25
-27 -56 -31 -70 -11 -34 -81 -145 -128 -202 -22 -26 -68 -66 -102 -88 -35 -23
-74 -58 -88 -79 -55 -83 -126 -260 -153 -384 -17 -77 -17 -78 3 -99 20 -19 22
-19 56 -3 20 9 54 38 76 63 49 56 62 69 124 125 l48 42 29 135 c52 247 58 264
127 400 71 142 78 156 150 335 25 61 74 171 109 246 35 75 64 140 64 143 0 4
25 61 55 126 30 66 75 177 101 247 52 146 122 313 135 328 6 5 9 1 9 -10 1
-31 28 -59 109 -110 8 -5 38 -26 66 -46 27 -19 68 -45 90 -58 l40 -23 -30 27
c-16 14 -66 49 -110 78 -43 29 -81 58 -83 65 -7 23 16 12 52 -25 38 -39 130
-100 237 -157 36 -19 71 -41 77 -49 7 -8 33 -27 58 -43 50 -32 95 -92 119
-163 16 -43 36 -88 60 -133 5 -10 13 -18 18 -18 4 0 -4 23 -19 52 -14 28 -33
74 -41 102 -21 69 -87 163 -129 183 -19 9 -34 20 -34 25 0 4 -4 8 -10 8 -5 0
-30 15 -55 34 -24 19 -54 37 -65 41 -11 3 -20 10 -20 15 0 13 29 1 66 -26 16
-12 47 -29 68 -38 60 -25 156 -98 214 -162 30 -33 61 -67 69 -76 9 -10 21 -18
26 -18 13 0 -151 179 -183 199 -14 8 -29 21 -35 28 -14 16 -101 63 -118 63 -8
0 -21 7 -28 17 -8 9 -27 22 -44 30 -16 7 -48 25 -70 38 -22 14 -63 37 -92 51
-52 26 -86 54 -65 54 6 0 13 -4 16 -9 3 -4 34 -19 68 -31 35 -12 82 -31 105
-41 24 -11 49 -19 56 -19 8 0 17 -3 21 -7 3 -4 15 -8 26 -10 10 -1 38 -10 62
-19 24 -8 54 -18 68 -21 14 -3 45 -20 70 -38 25 -18 98 -54 163 -80 65 -27
135 -62 155 -78 20 -16 46 -33 57 -37 48 -18 65 -21 65 -11 0 5 -15 14 -33 19
-18 5 -55 25 -83 44 -27 20 -60 39 -74 43 -49 14 -206 89 -255 122 -27 18 -57
33 -65 33 -8 1 -31 10 -50 21 -28 16 -30 19 -10 15 14 -4 43 -9 65 -12 22 -3
68 -12 103 -20 35 -9 87 -19 115 -24 29 -4 66 -11 82 -15 22 -4 26 -4 15 4 -9
5 -55 17 -104 26 -48 9 -106 23 -128 31 -22 8 -58 14 -78 14 -21 0 -51 7 -67
15 -15 8 -53 19 -84 25 -31 6 -65 18 -75 26 -17 14 -14 14 36 8 30 -3 75 -13
100 -20 51 -16 79 -18 64 -6 -15 13 -75 30 -154 43 -41 6 -69 14 -62 16 7 3
42 0 78 -6 38 -7 96 -9 139 -5 65 6 78 4 108 -15 33 -20 94 -35 182 -46 22 -2
80 -9 128 -14 49 -5 128 -7 175 -3 l87 7 -140 6 c-77 4 -192 13 -256 22 -197
27 -226 60 -50 57 204 -3 328 1 298 10 -15 5 -128 8 -251 8 -123 -1 -228 2
-235 6 -6 4 -96 8 -199 8 -103 0 -212 3 -242 7 -36 6 31 9 200 10 244 2 502
20 518 36 8 8 -134 -1 -233 -15 -87 -12 -446 -11 -380 1 28 5 59 7 69 5 11 -3
47 2 80 11 97 24 203 44 436 79 25 4 39 9 33 11 -14 5 -183 -20 -418 -62 -144
-25 -317 -46 -324 -39 -10 9 9 14 80 20 41 3 84 13 96 20 12 8 30 14 39 14 18
0 43 7 144 41 61 20 282 44 405 43 79 0 79 0 30 9 -33 7 -86 7 -155 0 -58 -6
-139 -12 -180 -12 -46 -2 -91 -9 -120 -21 -25 -10 -76 -26 -115 -36 -38 -9
-90 -22 -115 -29 -55 -17 -140 -25 -140 -15 0 5 19 11 41 15 53 9 102 29 119
49 7 9 25 16 41 16 15 0 43 9 61 19 56 33 149 59 233 66 44 3 101 11 126 16
25 6 97 16 160 24 l114 14 -95 -5 c-52 -2 -126 -11 -165 -19 -38 -8 -93 -15
-122 -15 -60 0 -145 -16 -188 -35 -85 -37 -108 -45 -128 -45 -22 1 -22 1 -2
16 63 50 295 133 397 141 38 3 66 8 64 11 -10 9 -104 2 -162 -12 -72 -17 -244
-87 -283 -115 -16 -12 -32 -21 -36 -21 -15 0 100 97 169 142 39 26 86 61 103
78 18 17 45 36 60 42 16 7 46 25 67 40 21 16 47 28 56 28 10 0 23 7 30 15 7 8
21 15 31 15 10 0 21 5 24 10 3 6 -1 10 -10 10 -24 0 -226 -110 -250 -136 -11
-11 -51 -43 -90 -69 -38 -26 -104 -76 -146 -110 -42 -35 -94 -72 -116 -83 -21
-11 -45 -28 -53 -37 -15 -18 -70 -49 -76 -42 -2 2 18 25 46 51 27 26 50 51 50
56 0 5 11 17 25 28 14 11 25 24 25 30 0 6 27 39 61 74 33 34 68 72 77 84 10
12 38 30 64 41 25 12 103 59 174 105 71 47 137 87 147 91 9 3 17 11 17 16 0
16 -84 -32 -203 -114 -60 -41 -113 -75 -119 -75 -15 0 64 83 147 156 108 93
179 144 206 145 22 1 21 2 -6 10 -26 7 -35 4 -75 -29 -25 -21 -70 -55 -100
-77 -86 -61 -134 -104 -136 -121 -2 -14 -130 -144 -141 -144 -13 0 26 47 77
91 33 29 58 54 56 57 -3 2 -36 -23 -73 -57 -37 -33 -72 -61 -76 -61 -5 0 12
28 37 63 25 34 61 85 80 112 41 62 90 121 167 203 33 34 57 62 53 62 -3 0 -37
-28 -74 -62 -69 -63 -184 -205 -229 -282 -45 -78 -91 -141 -136 -190 -25 -26
-66 -75 -92 -107 -26 -32 -49 -56 -51 -54 -2 1 5 20 16 42 10 21 34 76 52 123
18 47 41 103 51 126 11 22 19 44 19 49 0 4 9 26 19 49 11 23 35 77 55 120 35
75 55 111 118 209 29 45 33 57 19 57 -24 0 -196 -328 -258 -495 -25 -66 -53
-141 -63 -167 -10 -25 -30 -59 -45 -75 -14 -15 -31 -39 -36 -52 -7 -17 -13
-21 -20 -14 -8 8 -8 49 0 144 6 72 11 176 11 229 0 196 39 452 85 560 48 111
44 142 -4 37z m-791 -677 c14 -10 23 -21 20 -23 -3 -3 -18 6 -35 19 -35 28
-22 32 15 4z m82 -3 c97 -52 156 -97 128 -97 -12 0 -101 49 -110 61 -3 3 -19
14 -37 23 -33 17 -51 36 -34 36 5 0 29 -10 53 -23z m231 -48 c30 -16 191 -178
184 -185 -8 -9 -135 92 -180 142 -48 54 -49 66 -4 43z m707 -9 c0 -6 -17 -28
-37 -48 -21 -21 -62 -65 -91 -100 -48 -56 -82 -78 -82 -53 0 5 31 40 68 78 38
37 79 83 91 101 21 31 51 43 51 22z m-870 -50 c40 -20 41 -22 27 -43 -11 -16
-24 -22 -52 -22 -34 0 -38 3 -51 40 -25 72 -20 74 76 25z m180 -17 c31 -32 84
-82 118 -112 114 -97 67 -76 -145 66 -82 55 -82 55 -65 79 9 13 21 24 27 24 5
0 34 -26 65 -57z m210 -86 c0 -6 7 -19 17 -29 27 -31 7 -31 -23 0 -98 97 -126
151 -44 82 28 -23 50 -47 50 -53z m-270 28 c30 -19 48 -35 40 -35 -27 0 -120
44 -120 57 0 21 23 15 80 -22z m-145 -25 c3 -5 -1 -10 -9 -10 -9 0 -16 5 -16
10 0 6 4 10 9 10 6 0 13 -4 16 -10z m144 -16 c26 -15 26 -15 -14 -9 -22 4 -53
13 -70 21 l-30 14 44 -5 c24 -3 55 -12 70 -21z m9 -48 c74 -19 162 -55 162
-66 0 -5 -28 -2 -62 7 -35 8 -93 21 -130 29 -81 17 -114 29 -123 44 -10 16 67
9 153 -14z m521 -32 c-6 -8 -18 -14 -27 -14 -13 0 -12 3 3 20 20 22 43 17 24
-6z m-139 -16 c0 -5 -9 -8 -20 -8 -23 0 -26 10 -8 28 9 9 14 9 20 -1 4 -6 8
-15 8 -19z m-586 -33 c40 -12 55 -20 48 -27 -11 -11 -28 -6 -129 39 -29 13
-53 28 -53 33 0 6 17 2 38 -9 21 -10 64 -27 96 -36z m206 25 c25 -5 60 -12 78
-15 17 -4 32 -11 32 -16 0 -13 -19 -11 -81 7 -30 9 -76 19 -103 23 -27 3 -51
11 -53 18 -3 8 7 9 39 2 24 -5 63 -14 88 -19z m430 16 c0 -3 -4 -8 -10 -11 -5
-3 -10 -1 -10 4 0 6 5 11 10 11 6 0 10 -2 10 -4z m230 -5 c0 -10 -91 -44 -98
-36 -2 2 7 7 21 10 15 4 31 13 38 21 13 16 39 19 39 5z m-390 -11 c0 -5 -2
-10 -4 -10 -3 0 -8 5 -11 10 -3 6 -1 10 4 10 6 0 11 -4 11 -10z m210 -10 c0
-5 -5 -10 -11 -10 -5 0 -7 5 -4 10 3 6 8 10 11 10 2 0 4 -4 4 -10z m-528 -22
c-11 -11 -62 -3 -62 10 0 4 16 6 36 4 24 -3 32 -8 26 -14z m83 -8 c16 -7 12
-9 -18 -9 -23 -1 -36 3 -32 9 7 12 23 12 50 0z m225 -10 c0 -12 -27 -12 -55 0
-16 7 -13 9 18 9 20 1 37 -3 37 -9z m-271 -26 c7 -6 -20 -33 -40 -39 -20 -7
-79 14 -79 27 0 19 99 29 119 12z m-184 -4 l20 -8 -20 -7 c-39 -14 -43 -13
-61 6 -17 18 -16 19 12 18 16 0 38 -4 49 -9z m380 0 c49 0 65 -3 55 -10 -19
-12 -230 -13 -230 -1 0 14 30 20 70 15 19 -2 67 -4 105 -4z m-61 -40 c-6 -6
-49 -13 -95 -16 -55 -3 -80 -1 -74 5 6 6 39 12 75 14 36 2 74 4 85 5 13 1 16
-1 9 -8z m71 -20 c-28 -12 -37 -12 -30 0 3 6 16 10 28 9 21 0 21 -1 2 -9z
m753 -17 c-16 -2 -40 -2 -55 0 -16 2 -3 4 27 4 30 0 43 -2 28 -4z m-250 -28
c18 -5 33 -25 18 -25 -10 0 -76 31 -76 36 0 5 5 4 58 -11z m2 -116 c22 -18 38
-34 35 -37 -2 -2 -18 7 -35 22 -17 14 -37 26 -43 26 -7 0 -25 11 -42 25 l-30
26 37 -15 c21 -8 56 -29 78 -47z"/>
<path d="M11052 10360 c-7 -39 -11 -92 -11 -118 1 -30 3 -36 6 -17 3 31 20
128 29 178 3 15 2 27 -3 27 -5 0 -14 -32 -21 -70z"/>
<path d="M11425 9010 c3 -6 34 -29 68 -52 74 -50 156 -125 168 -153 7 -19 8
-19 8 2 1 22 -62 103 -80 103 -5 0 -29 15 -53 33 -62 44 -118 79 -111 67z"/>
<path d="M11687 7234 c-3 -4 -1 -16 5 -28 8 -14 13 -112 15 -286 1 -146 5
-320 7 -387 2 -69 0 -123 -5 -123 -5 0 -10 60 -11 133 -2 122 -2 126 -8 52 -3
-44 -8 -75 -10 -70 -2 6 -4 109 -5 230 -4 323 -4 335 -15 335 -6 0 -8 -94 -4
-269 7 -269 7 -270 -14 -268 -17 1 -24 13 -36 62 -8 33 -24 96 -35 139 -12 44
-19 81 -16 84 2 3 -2 14 -10 26 -8 11 -15 31 -15 45 0 33 -54 189 -58 168 -2
-10 0 -26 4 -35 4 -9 8 -24 9 -32 1 -8 5 -25 9 -37 4 -13 3 -23 -2 -23 -5 0
-14 18 -21 40 -18 60 -36 63 -27 5 4 -31 15 -59 30 -75 36 -38 57 -130 30
-130 -24 0 -26 -42 -4 -113 12 -40 26 -81 30 -92 5 -11 11 -45 14 -75 3 -30
13 -73 21 -95 8 -22 14 -51 14 -65 0 -23 -2 -22 -19 12 -11 20 -29 39 -40 43
-11 3 -25 16 -31 28 -6 12 -19 31 -29 42 -10 11 -20 33 -24 49 -4 16 -25 50
-47 75 -23 25 -48 58 -57 73 -27 47 -34 31 -8 -19 13 -27 38 -61 54 -76 17
-16 33 -44 36 -61 4 -22 29 -57 75 -105 38 -40 67 -79 65 -86 -3 -6 11 -31 30
-54 40 -48 65 -119 46 -131 -9 -5 -9 -9 -1 -14 6 -4 11 -11 11 -16 0 -22 -77
30 -134 88 -33 35 -62 58 -64 52 -6 -16 114 -137 158 -160 38 -21 30 -26 -16
-11 -47 15 -104 21 -104 10 0 -5 16 -9 35 -9 19 0 35 -4 35 -9 0 -5 -62 -9
-137 -10 -365 -3 -679 -32 -868 -81 -38 -10 -115 -28 -170 -40 -55 -12 -165
-43 -245 -68 -118 -37 -161 -45 -232 -47 -87 -3 -96 -5 -193 -58 -63 -34 -122
-60 -175 -79 -72 -24 -160 -83 -160 -106 0 -10 18 -36 40 -57 39 -39 43 -40
108 -40 55 0 74 5 107 26 22 14 99 60 170 103 77 45 158 103 199 141 62 58 79
68 160 94 105 34 366 99 446 112 30 4 84 13 120 19 233 36 859 75 820 50 -8
-5 -31 -10 -51 -10 -20 0 -53 -7 -72 -15 -20 -8 -55 -15 -77 -15 -23 0 -40 -5
-40 -11 0 -15 73 -6 213 27 60 15 111 23 114 20 4 -3 0 -6 -8 -6 -8 0 -26 -6
-40 -14 -77 -40 -130 -49 -251 -43 -65 4 -118 3 -118 -2 0 -11 173 -19 247
-10 32 4 91 21 132 38 40 17 75 31 76 31 2 0 -31 -35 -73 -78 -150 -152 -232
-249 -232 -273 0 -32 19 -134 38 -196 l15 -53 -47 -93 c-25 -51 -46 -97 -46
-102 0 -4 11 2 25 15 14 13 25 28 25 34 0 6 11 32 25 58 14 26 25 54 25 62 0
20 19 31 32 18 7 -7 0 -29 -20 -69 -17 -32 -43 -85 -57 -118 -14 -32 -33 -67
-41 -77 -15 -16 -11 -44 5 -34 15 10 131 257 131 281 0 11 11 15 38 15 20 1
51 7 67 15 29 14 29 15 -21 9 -29 -3 -54 -2 -57 3 -3 4 13 46 35 93 22 47 41
92 43 100 2 8 23 67 48 130 24 63 47 124 51 134 3 10 9 16 12 13 3 -3 -4 -48
-15 -101 -12 -53 -21 -117 -21 -143 0 -27 -5 -68 -11 -92 -5 -23 -13 -68 -18
-100 -5 -31 -22 -123 -39 -206 -32 -158 -49 -286 -33 -249 5 11 12 47 16 80 8
64 35 205 62 322 15 63 18 70 25 47 4 -15 3 -37 -1 -49 -5 -12 -14 -54 -20
-95 -6 -40 -18 -86 -26 -102 -9 -16 -11 -29 -5 -29 15 0 36 59 44 123 4 31 11
57 14 57 8 0 -2 -164 -13 -230 -6 -34 -4 -40 17 -51 13 -6 26 -17 30 -23 5 -8
11 -7 20 2 9 9 9 15 0 24 -7 7 -12 22 -12 35 0 13 -5 23 -11 23 -6 0 -9 -11
-7 -25 2 -13 -1 -23 -7 -22 -5 1 -9 20 -9 42 1 22 4 97 6 167 2 70 7 130 11
134 4 4 7 -8 7 -27 0 -19 4 -39 9 -45 18 -18 44 -130 48 -207 3 -49 -1 -107
-11 -156 -19 -92 -19 -91 -7 -91 5 0 13 26 16 58 4 31 13 71 20 87 16 40 10
278 -10 410 -8 55 -17 136 -19 180 -5 79 -5 79 5 20 5 -33 11 -64 13 -70 6
-15 -1 159 -9 235 -8 69 2 77 16 13 31 -151 113 -504 134 -578 7 -27 24 -95
36 -150 28 -128 39 -140 22 -25 -13 87 -26 147 -58 259 -8 30 -13 56 -11 58 2
2 19 -22 36 -54 18 -32 49 -74 69 -94 37 -36 111 -171 111 -202 0 -9 7 -17 15
-17 21 0 20 55 -4 172 -20 99 -44 168 -59 168 -10 0 -44 62 -37 68 8 9 285
-262 285 -280 0 -4 9 -8 20 -8 16 0 5 16 -47 71 -38 40 -104 103 -148 142 -44
39 -89 84 -100 101 -11 17 -23 33 -28 34 -9 4 -35 54 -71 136 -19 42 -22 56
-11 56 13 0 116 -155 128 -195 12 -38 200 -219 257 -248 30 -15 47 -22 37 -15
-68 48 -133 103 -159 135 -16 21 -47 57 -69 80 -21 23 -39 48 -39 57 0 8 -4
16 -8 18 -10 4 -102 157 -102 169 0 5 -4 9 -9 9 -10 0 -104 142 -122 185 -7
17 -20 39 -28 49 -23 29 -3 16 111 -72 101 -77 100 -75 122 -173 3 -15 31 -59
61 -99 48 -61 54 -74 43 -88 -11 -13 -11 -15 4 -9 11 4 22 -1 30 -12 7 -10 33
-32 58 -50 73 -52 216 -187 266 -252 26 -32 49 -57 52 -55 16 16 -221 264
-309 323 -66 46 -73 56 -49 78 19 17 21 17 57 -10 38 -28 104 -84 153 -129 14
-13 41 -34 60 -46 19 -13 50 -39 68 -57 30 -30 72 -47 57 -23 -3 6 -11 10 -17
10 -5 0 -19 11 -30 25 -20 25 -152 135 -162 135 -3 0 -24 18 -48 40 -24 23
-55 48 -71 58 -26 16 -31 32 -11 39 5 2 57 -28 114 -66 58 -38 107 -67 110
-64 7 7 -52 52 -110 83 -30 16 -64 36 -75 45 -17 14 -18 17 -3 31 15 15 21 13
80 -18 34 -19 95 -52 133 -73 39 -21 79 -46 90 -55 25 -22 65 -43 71 -37 5 5
-162 114 -243 158 -35 18 -63 37 -63 42 0 9 64 2 115 -13 17 -5 44 -11 60 -14
17 -3 66 -12 109 -20 83 -17 116 -15 50 3 -22 6 -77 17 -124 25 -47 8 -98 20
-113 25 -16 6 -39 11 -53 11 -13 0 -24 4 -24 9 0 4 46 11 103 15 86 6 111 4
157 -12 73 -25 160 -37 160 -21 0 6 -6 9 -13 6 -15 -6 -125 18 -135 29 -7 6
70 -2 116 -13 13 -3 22 -1 22 6 0 6 -3 11 -7 11 -31 0 -294 40 -304 45 -6 4
-25 11 -43 15 -76 20 -215 85 -203 96 2 2 66 -8 143 -21 140 -26 274 -38 307
-29 33 10 17 19 -35 19 -82 1 -296 25 -326 36 -15 6 -64 17 -110 25 -50 9
-109 27 -150 48 -37 18 -101 48 -142 66 -100 43 -104 49 -23 34 149 -29 181
-38 257 -71 49 -22 98 -36 130 -38 28 -1 69 -5 91 -9 22 -4 68 -12 103 -18 52
-8 75 -7 138 8 83 19 104 33 104 70 0 31 -16 31 -24 -1 -3 -13 -15 -29 -25
-34 -39 -21 -176 -24 -307 -7 -108 15 -143 24 -215 57 -61 28 -116 45 -185 56
-99 16 -144 33 -88 33 97 0 517 30 511 36 -4 5 -459 -14 -512 -21 l-40 -6 33
16 c37 16 109 31 466 94 33 6 88 11 122 11 62 0 144 23 144 41 0 12 -1 12 -44
-6 -20 -9 -60 -17 -89 -20 -173 -14 -205 -17 -232 -25 -81 -22 -185 -41 -201
-38 -11 2 17 12 61 22 44 10 121 31 170 46 50 16 122 36 160 46 39 9 75 19 80
23 6 3 26 11 45 17 28 10 31 12 12 13 -13 1 -38 -6 -55 -13 -18 -8 -77 -26
-132 -40 -55 -14 -143 -38 -195 -54 -110 -33 -168 -46 -155 -34 6 5 37 17 70
27 33 10 78 24 100 31 22 7 84 22 138 34 54 12 96 24 93 28 -19 18 -361 -82
-452 -133 -34 -19 -68 -35 -76 -35 -18 0 66 49 242 141 162 84 168 91 169 198
1 50 4 57 39 86 20 18 34 36 30 40 -9 9 -48 -17 -48 -32 0 -7 -4 -13 -9 -13
-9 0 -22 79 -18 115 3 36 -15 135 -25 135 -6 0 -8 -10 -5 -22 3 -13 9 -66 12
-118 4 -52 9 -102 11 -112 7 -24 -141 -168 -291 -283 -70 -54 -128 -96 -130
-93 -2 2 50 53 116 113 122 112 171 167 175 194 1 9 16 54 33 101 31 87 63
247 52 255 -4 2 -13 -29 -20 -68 -17 -92 -46 -185 -82 -267 -26 -57 -49 -83
-174 -203 -80 -76 -145 -135 -145 -132 0 4 37 48 83 99 92 101 132 156 170
232 33 65 93 280 101 364 17 168 18 195 9 185 -12 -12 -31 -124 -38 -225 -4
-66 -46 -244 -60 -258 -3 -3 -5 62 -5 144 0 96 -6 171 -15 211 -21 88 -21 114
-3 151 9 18 12 30 7 26 -5 -3 -19 -24 -31 -47 -18 -37 -22 -40 -29 -22 -4 11
-8 32 -8 48 -1 15 -6 27 -11 27 -6 0 -8 16 -4 42 5 30 4 39 -4 34 -7 -4 -12
-17 -12 -30 0 -33 -20 -89 -37 -103 -9 -7 -11 -13 -4 -18 6 -3 11 -19 11 -35
0 -15 4 -30 10 -32 9 -3 27 -82 37 -168 8 -68 -16 -174 -54 -237 -18 -31 -33
-61 -33 -68 0 -7 -10 -28 -23 -47 -22 -32 -40 -78 -31 -78 2 0 13 15 24 33 12
18 20 25 20 16 0 -9 -16 -33 -35 -53 -19 -21 -35 -41 -35 -46 0 -16 -41 -103
-46 -98 -3 3 4 32 14 64 11 33 23 75 27 94 4 19 11 37 16 40 4 3 10 22 12 41
2 20 7 41 11 48 4 6 9 25 11 41 2 17 14 51 25 77 12 27 23 55 25 63 2 8 15 48
29 89 29 83 29 84 18 77 -4 -3 -21 -45 -38 -95 -28 -88 -46 -119 -36 -63 10
58 -11 9 -24 -55 -19 -92 -46 -183 -55 -183 -8 0 -8 1 20 115 11 44 30 127 41
185 12 58 28 130 36 160 8 30 14 63 13 75 0 20 0 20 -9 0 -5 -11 -18 -60 -29
-110 -11 -49 -33 -148 -49 -220 -17 -71 -35 -159 -41 -195 -6 -36 -18 -101
-26 -145 l-15 -80 5 79 c3 44 14 128 26 188 11 60 19 114 16 121 -2 6 -8 -10
-11 -38 -4 -27 -12 -61 -17 -75 l-9 -25 4 25 c2 14 10 64 17 113 11 79 21 105
31 77 2 -6 4 24 4 67 0 43 10 123 22 178 25 121 36 209 23 180 -5 -11 -10 -33
-10 -49 -1 -27 -2 -28 -14 -12 -11 15 -13 8 -13 -51 0 -78 -13 -173 -24 -173
-6 0 -14 44 -25 140 -6 49 -38 191 -52 228 -15 41 -23 49 -36 36z m72 -275
c34 -176 34 -193 8 -342 -14 -76 -22 -148 -19 -160 3 -16 2 -19 -6 -12 -6 6
-12 24 -13 40 -5 57 1 588 6 584 2 -3 13 -52 24 -110z m235 36 c5 -62 -6 -106
-17 -66 -3 12 -1 24 5 27 5 3 3 11 -6 17 -11 9 -14 23 -9 55 8 57 21 41 27
-33z m46 -52 c0 -22 -2 -25 -10 -13 -13 20 -13 40 0 40 6 0 10 -12 10 -27z
m-31 -55 c0 -7 -4 -22 -9 -33 -7 -17 -9 -15 -9 13 -1 17 4 32 9 32 6 0 10 -6
9 -12z m60 -224 l1 -160 -48 -70 c-26 -38 -58 -80 -70 -94 -99 -110 -105 -115
-97 -90 4 14 31 61 60 105 67 102 81 131 96 191 7 27 16 55 22 62 5 7 10 76
10 155 0 129 1 138 13 102 8 -25 13 -101 13 -201z m-59 -67 c-5 -26 -18 -67
-29 -90 -10 -23 -20 -46 -22 -52 -10 -25 -55 -95 -62 -95 -4 0 6 26 22 58 62
118 83 191 90 302 l6 105 3 -89 c2 -50 -2 -112 -8 -139z m-455 146 c3 -16 11
-45 17 -66 12 -39 1 -78 -18 -67 -13 7 -54 111 -54 138 0 17 6 22 25 22 19 0
26 -6 30 -27z m35 -143 c0 -5 -2 -10 -4 -10 -3 0 -8 5 -11 10 -3 6 -1 10 4 10
6 0 11 -4 11 -10z m366 -67 c-7 -16 -21 -46 -30 -67 -9 -22 -19 -37 -21 -34
-8 8 49 128 61 128 2 0 -2 -12 -10 -27z m-381 -8 c3 -14 7 -36 10 -50 3 -14 1
-25 -4 -25 -5 0 -12 15 -16 33 -4 17 -9 40 -11 50 -3 9 -1 17 5 17 6 0 13 -11
16 -25z m30 -40 c4 -27 5 -47 1 -44 -4 4 -10 30 -15 58 -5 29 -5 49 0 44 4 -4
11 -30 14 -58z m39 38 c19 -65 29 -184 12 -132 -14 41 -36 124 -36 136 0 19
18 16 24 -4z m46 -50 c0 -21 3 -56 6 -78 4 -27 2 -35 -4 -25 -15 24 -26 140
-13 140 6 0 11 -17 11 -37z m590 -64 l-13 -59 -136 -71 c-75 -40 -153 -83
-174 -96 -71 -45 -49 -16 45 58 153 119 191 152 238 202 24 27 46 43 48 37 3
-7 -1 -38 -8 -71z m-531 -12 c0 -12 -4 -31 -9 -42 -6 -15 -9 -8 -9 28 -1 30 3
46 9 42 6 -3 10 -16 9 -28z m-66 -92 c7 -47 -7 -27 -18 25 -5 23 -4 32 3 25 5
-5 12 -28 15 -50z m-54 -15 c0 -13 -1 -13 -8 0 -5 8 -12 26 -15 40 l-7 25 15
-25 c9 -14 15 -32 15 -40z m-19 -23 c0 -5 -4 -5 -10 -2 -5 3 -10 14 -10 23 0
15 2 15 10 2 5 -8 10 -19 10 -23z m54 -62 c3 -8 1 -15 -3 -15 -5 0 -11 7 -15
15 -3 8 -1 15 3 15 5 0 11 -7 15 -15z m241 -241 c39 -15 77 -33 86 -41 8 -7
22 -13 30 -13 8 0 19 -4 25 -9 5 -5 38 -19 74 -32 36 -13 88 -40 115 -61 28
-21 75 -47 105 -57 74 -26 33 -26 -66 0 -112 29 -199 66 -269 112 -33 22 -90
61 -127 85 -38 25 -68 49 -68 55 0 6 5 6 13 -1 6 -6 44 -23 82 -38z m-310
-110 c-36 -66 -65 -125 -65 -132 0 -16 -66 -185 -90 -232 -21 -40 -19 -43 -47
87 -11 51 -16 98 -12 105 22 37 270 299 277 293 1 -1 -27 -56 -63 -121z m61
30 c-4 -9 -9 -15 -11 -12 -3 3 -3 13 1 22 4 9 9 15 11 12 3 -3 3 -13 -1 -22z
m-43 -101 c-14 -38 -29 -80 -33 -94 -4 -14 -12 -34 -18 -45 -6 -10 -23 -52
-37 -91 -29 -80 -56 -120 -73 -109 -7 4 5 38 34 96 24 50 44 95 44 101 0 16
94 209 102 209 4 0 -4 -30 -19 -67z m234 -15 c18 -40 35 -84 38 -98 4 -14 18
-39 31 -56 23 -31 104 -195 104 -210 0 -5 11 -17 24 -29 25 -21 59 -145 71
-255 l6 -55 -24 66 c-30 79 -44 105 -78 138 -40 41 -125 162 -143 205 -22 54
-59 203 -53 219 2 6 10 -8 17 -33 17 -62 70 -202 83 -218 22 -28 16 -1 -16 74
-19 44 -38 103 -41 133 -4 30 -11 62 -16 71 -21 40 -49 120 -42 120 5 0 22
-33 39 -72z m-138 -143 c-9 -149 -13 -175 -23 -164 -13 13 -3 330 12 353 15
25 19 -46 11 -189z m409 166 c109 -47 229 -80 300 -82 20 -1 48 -5 62 -9 21
-7 18 -8 -20 -9 -25 -1 -70 -8 -100 -15 -51 -12 -60 -11 -113 10 -65 26 -134
66 -180 106 -41 35 -31 35 51 -1z m-53 -31 c2 3 42 -32 88 -78 73 -71 83 -84
67 -92 -20 -11 -31 0 -105 102 -27 37 -51 66 -53 63 -3 -2 26 -45 63 -96 49
-68 63 -94 54 -100 -8 -4 -20 -3 -28 4 -29 25 -94 121 -101 151 -4 17 -10 42
-14 56 -7 24 -7 24 9 5 9 -11 18 -18 20 -15z m158 -85 c32 -16 56 -33 54 -39
-8 -25 -37 -14 -83 29 -27 26 -44 45 -39 42 6 -2 36 -16 68 -32z m-479 -322
c4 -13 3 -23 -2 -23 -13 0 -22 52 -21 119 l2 56 7 -65 c4 -36 10 -75 14 -87z"/>
<path d="M11800 7185 c0 -6 7 -32 15 -60 l15 -50 -4 48 c-2 27 -9 54 -15 60
-6 6 -11 7 -11 2z"/>
<path d="M11930 6932 c0 -5 -9 -51 -20 -102 -20 -92 -24 -128 -16 -119 3 3 14
47 26 99 11 52 23 103 26 113 3 9 1 17 -5 17 -6 0 -11 -4 -11 -8z"/>
<path d="M3956 6622 c-44 -86 -64 -164 -81 -306 -9 -77 -18 -143 -22 -149 -3
-5 -5 -88 -5 -185 -1 -227 -12 -272 -22 -82 -4 80 -9 161 -11 180 -1 19 -6 96
-10 170 -4 74 -9 137 -12 140 -5 5 5 -311 12 -390 10 -103 14 -281 7 -276 -5
3 -12 32 -15 64 -7 67 -15 92 -29 92 -6 0 -8 -7 -4 -15 3 -8 8 -37 12 -65 12
-88 -11 -55 -45 67 -29 103 -33 131 -32 232 1 64 5 134 10 156 9 36 7 55 -4
44 -4 -4 -23 -189 -26 -249 -1 -16 -6 -6 -14 25 -6 28 -17 59 -22 70 -13 24
-37 154 -54 285 -8 70 -9 105 -1 134 12 43 10 52 -9 41 -9 -6 -10 -41 -6 -134
9 -173 35 -290 121 -541 20 -57 36 -113 36 -124 0 -20 0 -20 -16 0 -13 16 -15
16 -10 2 7 -22 -12 -24 -21 -3 -3 9 -28 28 -56 43 -78 42 -83 46 -113 81 l-27
33 31 64 c18 35 32 74 31 87 0 18 -3 16 -16 -12 -8 -19 -23 -46 -33 -58 -10
-13 -22 -37 -25 -53 -4 -17 -11 -33 -17 -36 -12 -8 -111 41 -130 64 -17 21
-33 68 -48 144 -11 57 -11 58 24 110 39 58 38 80 -1 33 -41 -50 -50 -79 -42
-143 4 -31 11 -68 15 -81 6 -20 0 -17 -40 20 -26 24 -66 68 -89 97 -23 28 -45
52 -50 52 -14 0 21 -55 62 -98 23 -23 41 -44 41 -47 0 -14 -25 -1 -75 40 -30
25 -55 42 -55 37 0 -15 94 -95 180 -152 53 -35 171 -133 166 -137 -6 -7 -121
44 -163 72 -47 31 -105 85 -160 150 -23 28 -45 47 -49 43 -7 -8 87 -125 117
-146 11 -7 19 -19 19 -27 0 -23 -49 12 -100 71 -25 29 -48 53 -53 53 -14 2 21
-54 58 -92 75 -77 20 -51 -106 51 -56 45 -71 40 -24 -8 34 -35 174 -129 193
-130 21 -1 61 -51 75 -93 22 -66 1 -58 -36 14 -16 30 -32 56 -38 57 -12 5 -11
-2 3 -33 15 -34 4 -42 -23 -16 -24 22 -39 27 -39 13 0 -5 24 -26 54 -48 30
-21 57 -46 60 -54 3 -8 9 -21 12 -28 8 -18 -59 10 -100 42 -17 12 -36 25 -42
27 -31 11 -143 106 -144 122 0 21 -20 23 -20 1 0 -8 19 -32 41 -52 23 -20 52
-47 65 -59 13 -12 32 -24 42 -27 28 -9 88 -56 71 -56 -8 0 -41 14 -73 30 -32
17 -64 30 -71 30 -6 0 -22 11 -35 25 -13 14 -26 23 -28 20 -10 -10 51 -56 118
-90 38 -19 101 -41 141 -49 45 -10 81 -24 96 -38 28 -26 31 -54 6 -43 -10 4
-37 13 -61 21 -24 7 -52 24 -62 36 -17 21 -19 21 -20 4 0 -15 -5 -17 -27 -11
-16 3 -35 12 -43 19 -18 15 -106 66 -114 66 -18 0 1 -20 50 -55 32 -22 75 -56
97 -75 22 -19 52 -40 66 -47 l26 -11 -27 -1 c-16 -1 -42 12 -66 32 -70 56 -86
67 -97 67 -10 -1 17 -27 71 -67 l29 -22 -36 0 c-20 -1 -71 10 -114 24 -77 25
-107 28 -65 5 32 -17 180 -53 212 -51 24 1 97 -36 98 -50 0 -4 -18 -14 -40
-23 -22 -9 -40 -20 -40 -26 0 -14 -2 -14 83 24 68 31 79 34 114 24 21 -5 46
-19 56 -29 18 -19 17 -20 -27 -40 -26 -11 -69 -25 -96 -32 -28 -6 -50 -15 -50
-19 0 -7 132 27 159 42 18 9 163 41 183 39 24 -2 -97 -38 -129 -38 -17 -1 -35
-6 -38 -12 -8 -12 25 -7 160 24 50 11 101 21 115 22 14 2 32 5 40 8 8 3 36 12
63 20 44 13 47 13 47 -4 0 -10 -4 -20 -9 -23 -5 -3 -12 -21 -15 -39 -4 -19
-29 -90 -57 -158 -28 -68 -60 -151 -70 -184 -11 -33 -35 -91 -53 -130 -18 -38
-52 -115 -76 -170 -24 -55 -50 -107 -59 -116 -9 -10 -61 -27 -116 -39 -55 -12
-176 -45 -270 -72 -137 -41 -183 -50 -236 -49 -63 2 -73 -2 -173 -53 -58 -30
-134 -66 -169 -78 -89 -34 -157 -78 -157 -103 0 -53 111 -114 178 -99 69 16
346 188 436 270 77 71 116 87 341 144 166 42 161 43 126 -32 -60 -131 -101
-224 -101 -233 0 -6 -13 -35 -29 -65 -16 -30 -32 -66 -36 -80 -4 -14 -33 -65
-64 -113 -31 -49 -61 -96 -66 -105 -34 -56 -54 -76 -116 -118 -74 -51 -100
-84 -146 -185 -47 -101 -70 -167 -93 -262 -24 -99 -19 -117 31 -117 28 0 58
25 149 124 8 9 39 38 68 64 l52 47 25 125 c40 197 69 284 147 440 75 149 81
162 153 340 24 58 54 130 68 161 l25 56 113 17 c235 37 451 56 664 61 209 4
217 4 155 -10 -36 -8 -94 -21 -130 -29 l-65 -16 65 5 c36 2 108 16 160 29 52
14 97 23 99 20 6 -6 4 -6 -74 -38 -64 -26 -81 -28 -205 -28 -101 -1 -122 -3
-85 -9 28 -4 89 -8 136 -8 74 -1 97 3 155 28 38 16 78 32 90 35 12 4 -27 -44
-90 -110 -193 -203 -193 -203 -185 -249 4 -22 12 -69 18 -104 5 -35 15 -69 20
-74 18 -18 13 -39 -34 -132 -51 -104 -55 -117 -20 -85 14 13 25 28 25 34 0 6
11 32 25 58 14 26 25 54 25 62 0 20 19 31 32 18 6 -6 -5 -37 -31 -89 -23 -44
-41 -87 -41 -95 0 -8 -14 -34 -30 -57 -17 -23 -28 -46 -25 -51 10 -16 23 -11
30 12 4 11 20 43 36 70 27 46 63 134 76 185 4 18 10 21 32 17 15 -3 43 1 61 9
l35 15 -52 1 c-29 1 -53 4 -53 7 0 3 18 42 40 86 22 45 40 86 40 92 0 9 71
195 100 261 l9 20 0 -20 c0 -11 -4 -40 -10 -65 -6 -25 -15 -83 -19 -130 -4
-47 -22 -157 -39 -245 -40 -200 -71 -384 -70 -410 l0 -20 8 20 c5 11 12 49 16
85 3 36 15 101 25 145 9 44 23 113 30 153 15 80 36 101 27 25 -4 -27 -8 -57
-10 -68 -3 -11 -8 -40 -12 -64 -4 -24 -14 -60 -22 -79 -8 -19 -12 -37 -9 -40
9 -8 37 67 46 126 5 30 12 57 14 60 7 6 0 -135 -9 -210 -7 -54 -6 -56 25 -78
17 -12 33 -20 36 -17 3 3 -1 25 -10 49 l-15 43 -1 -34 c0 -24 -3 -32 -10 -25
-6 6 -8 70 -3 179 l6 169 17 -54 c46 -150 51 -174 51 -247 0 -43 -7 -109 -15
-148 -13 -65 -14 -86 -1 -73 3 3 10 34 16 69 5 35 14 71 19 80 17 32 11 266
-11 398 -19 120 -26 237 -15 249 4 3 7 -26 8 -64 l2 -69 5 75 c3 41 3 80 0 85
-10 16 -19 135 -11 135 5 0 16 -37 26 -82 24 -116 53 -240 93 -403 19 -77 39
-160 44 -185 5 -25 18 -79 29 -120 l19 -75 -5 65 c-3 36 -17 110 -31 165 -14
55 -28 114 -33 132 -5 20 -4 33 2 35 7 3 4 17 -6 36 -15 30 -66 208 -66 233 0
25 20 -5 26 -39 7 -43 71 -202 86 -217 15 -15 1 28 -34 103 -16 35 -28 71 -27
80 4 25 -9 75 -37 144 -14 33 -23 65 -21 71 2 6 20 -30 40 -79 21 -49 45 -102
54 -119 43 -76 103 -199 103 -210 0 -6 11 -22 25 -35 14 -13 30 -40 35 -59 16
-53 50 -234 46 -238 -2 -3 -12 17 -21 44 -25 71 -47 111 -76 141 -14 15 -45
53 -69 85 -23 32 -45 56 -47 53 -9 -9 47 -103 81 -136 37 -35 98 -142 110
-192 7 -31 23 -37 33 -12 17 44 -44 288 -81 323 -21 20 -41 61 -30 61 15 0
274 -256 274 -271 0 -5 10 -9 21 -9 17 0 -3 24 -82 103 -57 56 -130 126 -162
155 -31 29 -57 60 -57 68 0 8 -4 14 -10 14 -10 0 -52 78 -83 153 -13 30 -13
37 -2 37 13 0 116 -156 129 -196 12 -36 180 -200 239 -234 31 -17 57 -29 57
-26 0 3 -14 13 -31 21 -36 19 -83 58 -119 99 -14 16 -46 53 -72 81 -27 29 -48
55 -48 59 0 3 -15 30 -33 59 -18 28 -38 61 -45 72 -7 11 -18 32 -25 48 -6 15
-14 27 -18 27 -10 0 -116 162 -124 190 -4 14 -13 32 -19 40 -13 17 40 -20 136
-97 65 -52 88 -89 88 -144 0 -10 25 -49 55 -89 42 -54 54 -77 49 -92 -5 -17
-3 -20 10 -15 10 4 19 1 23 -9 3 -8 31 -32 62 -53 59 -41 210 -184 274 -261
49 -58 36 -31 -19 40 -47 61 -144 156 -214 210 -57 44 -100 82 -100 89 0 4 9
12 20 19 19 11 32 4 138 -82 64 -53 140 -115 167 -139 52 -45 85 -63 85 -47 0
6 -5 10 -11 10 -6 0 -28 17 -49 39 -21 21 -64 58 -96 82 -33 24 -81 63 -109
88 -27 24 -60 48 -72 54 -13 6 -23 14 -23 19 0 26 39 12 130 -47 56 -37 103
-65 106 -62 7 6 -63 58 -116 86 -25 13 -53 30 -63 39 -15 14 -16 18 -3 30 12
12 22 10 78 -20 141 -77 185 -103 236 -136 28 -19 54 -33 57 -30 6 6 -155 112
-242 159 -100 54 -76 56 142 11 139 -28 173 -33 155 -23 -8 5 -53 16 -100 25
-140 27 -240 51 -240 57 0 3 44 9 99 12 81 6 109 4 157 -12 75 -23 154 -35
154 -23 0 6 -10 10 -22 10 -32 -1 -117 18 -126 27 -7 7 36 3 106 -11 19 -4 32
-2 32 4 0 9 -69 21 -214 38 -72 8 -264 75 -306 105 -16 13 -29 24 -27 25 2 2
83 -12 202 -36 78 -16 242 -23 250 -11 3 7 -3 10 -17 10 -35 -2 -248 20 -304
31 -27 6 -74 15 -104 20 -87 15 -120 25 -205 65 -163 75 -186 85 -197 85 -22
0 5 -16 77 -45 39 -16 88 -39 110 -50 22 -12 65 -30 95 -41 30 -10 64 -25 75
-34 48 -39 92 -65 139 -81 71 -25 26 -23 -69 2 -144 37 -219 76 -408 210 -26
18 -43 35 -37 37 5 2 7 9 3 15 -4 6 0 8 10 4 9 -3 44 -11 79 -17 96 -16 145
-30 235 -67 45 -18 99 -33 120 -33 21 0 79 -7 128 -16 110 -20 141 -20 223 2
65 18 89 40 77 72 -5 13 -10 10 -25 -15 -15 -26 -28 -33 -67 -39 -86 -14 -275
-4 -331 17 -13 5 -33 9 -45 9 -12 0 -53 15 -92 34 -43 21 -104 41 -160 50
-116 21 -138 26 -133 31 2 2 91 9 198 15 259 14 335 21 319 31 -7 4 -17 5 -22
2 -5 -3 -106 -9 -225 -14 -119 -5 -230 -11 -247 -14 l-30 -6 26 15 c25 14 76
26 294 65 178 32 237 40 293 39 53 0 136 27 127 43 -3 4 -18 1 -34 -7 -16 -8
-80 -19 -143 -24 -116 -10 -173 -19 -292 -47 -55 -13 -74 -14 -101 -4 -29 10
-38 9 -69 -10 -20 -12 -39 -19 -42 -16 -6 6 131 84 273 155 56 28 105 57 110
64 4 7 10 46 14 86 5 65 9 76 39 107 19 19 30 38 26 42 -4 5 -18 -4 -31 -19
-13 -16 -27 -28 -30 -28 -3 0 -5 34 -5 75 0 70 -17 181 -26 172 -3 -2 0 -64 6
-136 l10 -132 -71 -74 c-59 -61 -349 -295 -349 -282 0 2 55 55 123 117 130
121 150 146 180 225 43 109 91 325 70 312 -6 -4 -13 -31 -17 -61 -7 -67 -46
-192 -84 -273 -21 -47 -47 -77 -129 -151 -56 -51 -119 -113 -139 -138 -20 -24
-39 -42 -41 -40 -3 2 31 45 75 95 84 95 146 180 180 248 27 51 82 258 88 326
2 29 6 63 9 77 11 53 14 130 7 130 -12 0 -34 -120 -38 -210 -2 -41 -17 -119
-32 -175 l-27 -100 -7 170 c-3 98 -13 195 -21 228 -14 51 -14 62 -1 94 10 22
11 32 3 28 -6 -4 -18 -24 -26 -44 -14 -32 -17 -34 -24 -16 -4 11 -8 32 -8 48
-1 15 -5 27 -10 27 -5 0 -7 19 -5 43 l4 42 -15 -32 c-14 -30 -19 -33 -59 -33
-26 0 -46 5 -49 13 -3 7 -6 5 -6 -5 -2 -36 -28 -18 -34 23 -3 22 -8 43 -11 46
-13 13 -14 -5 -4 -46 12 -47 2 -64 -37 -59 -15 2 -22 13 -26 43 -8 54 -37 117
-50 110 -5 -4 -7 -15 -4 -24 3 -10 7 -37 10 -59 2 -23 6 -46 9 -51 3 -5 3 -16
0 -25 -8 -22 -44 -21 -45 2 0 14 -2 13 -9 -4 -8 -19 -30 -30 -126 -58 -16 -5
-23 -2 -27 11 -2 10 -8 26 -12 36 -6 14 -2 17 19 17 14 0 26 4 26 9 0 12 -147
-22 -176 -41 -13 -8 -87 -33 -127 -42 -19 -5 -26 -3 -22 4 3 5 1 10 -5 10 -16
0 123 115 190 158 30 19 70 50 89 68 19 19 41 34 48 34 8 0 29 11 46 24 18 13
60 36 94 52 60 28 78 44 50 44 -7 0 -17 -4 -22 -9 -6 -5 -50 -30 -100 -56 -49
-26 -107 -63 -127 -81 -20 -18 -56 -46 -80 -61 -24 -15 -84 -61 -135 -100 -51
-40 -95 -73 -99 -73 -4 0 -30 -17 -58 -38 -28 -21 -62 -44 -75 -52 l-24 -12
23 31 c12 18 31 38 42 44 11 7 40 38 64 71 82 108 177 202 226 224 26 11 67
34 92 51 25 17 50 31 56 31 7 0 33 18 58 41 26 23 64 48 85 56 20 8 37 19 37
24 0 14 -11 10 -55 -16 -22 -13 -58 -33 -80 -43 -22 -10 -62 -37 -88 -60 -50
-43 -107 -78 -107 -65 0 8 212 213 221 213 3 0 30 18 59 40 29 22 62 40 72 40
26 0 22 15 -4 17 -27 2 -134 -74 -305 -217 -172 -144 -173 -144 -138 -90 16
25 41 59 56 75 14 17 32 40 38 52 13 25 185 232 209 250 8 7 13 15 10 18 -7 7
-228 -213 -228 -228 0 -7 -13 -28 -30 -47 -16 -19 -29 -40 -30 -45 0 -22 -89
-145 -166 -231 -43 -49 -87 -100 -97 -114 -10 -14 -16 -18 -13 -10 11 30 98
246 117 287 10 24 19 47 19 52 0 29 133 289 192 374 11 15 18 33 15 40 -9 29
-189 -295 -237 -428 -72 -198 -101 -265 -130 -296 -16 -19 -30 -39 -30 -46 0
-7 -7 -13 -16 -13 -14 0 -16 8 -10 53 3 28 10 156 15 282 5 127 17 275 25 330
17 112 50 235 70 268 15 24 30 77 21 77 -2 0 -16 -22 -29 -48z m-721 -542 c10
-11 15 -20 11 -20 -14 0 -46 21 -46 30 0 16 16 11 35 -10z m1078 -53 c-30 -37
-123 -120 -123 -110 0 5 29 38 64 71 65 63 93 81 59 39z m-1123 -91 c7 -9 9
-16 6 -16 -13 0 -56 32 -56 42 0 11 32 -6 50 -26z m100 -11 c82 -48 114 -75
88 -75 -7 0 -38 16 -68 36 -30 20 -67 42 -82 50 -24 13 -38 34 -23 34 3 0 41
-20 85 -45z m227 -56 c62 -53 143 -138 143 -150 0 -6 -21 5 -46 23 -50 36
-164 147 -164 160 0 17 20 7 67 -33z m656 25 c5 -6 -74 -100 -155 -186 -27
-29 -48 -36 -48 -17 0 11 180 208 191 209 3 0 8 -3 12 -6z m-674 -72 c31 -32
83 -81 116 -109 33 -28 58 -53 55 -56 -5 -5 -44 18 -197 120 l-83 55 18 24 c9
13 21 24 26 24 5 0 34 -26 65 -58z m-189 23 c28 -14 50 -28 50 -32 0 -17 -36
-43 -60 -43 -32 0 -42 11 -57 63 -14 46 -4 48 67 12z m397 -114 c32 -51 28
-59 -9 -20 -49 51 -88 101 -88 111 0 16 73 -52 97 -91z m-271 38 c25 -17 43
-33 41 -35 -9 -9 -117 39 -117 52 0 23 28 16 76 -17z m-141 -29 c3 -5 2 -10
-4 -10 -5 0 -13 5 -16 10 -3 6 -2 10 4 10 5 0 13 -4 16 -10z m116 -1 c19 -7
39 -16 44 -21 13 -13 -48 -1 -90 17 -25 11 -26 14 -9 14 12 1 36 -4 55 -10z
m1463 -11 c-3 -13 -10 -24 -15 -26 -4 -2 -6 -18 -4 -35 3 -18 3 -27 0 -21 -4
8 -21 10 -47 6 -32 -4 -40 -2 -36 9 3 8 13 13 22 13 9 -1 16 2 16 7 0 5 -7 9
-15 9 -17 0 -18 4 -9 38 5 19 13 22 51 22 41 0 44 -1 37 -22z m-124 -19 c0
-17 -6 -20 -32 -17 -40 4 -45 29 -8 38 32 9 40 4 40 -21z m17 -1 c-3 -7 -5 -2
-5 12 0 14 2 19 5 13 2 -7 2 -19 0 -25z m-363 0 c8 -32 7 -38 -4 -38 -5 0 -10
7 -10 15 0 8 -4 15 -10 15 -5 0 -10 -10 -10 -22 0 -25 -2 -25 -210 -83 -104
-29 -216 -44 -190 -26 8 6 23 11 33 11 24 0 117 40 117 50 0 4 15 11 33 14 17
4 75 24 127 46 52 21 100 39 106 39 7 1 14 -9 18 -21z m510 -35 c5 -34 3 -43
-8 -43 -22 0 -25 11 -19 59 7 50 18 43 27 -16z m-244 32 c0 -8 -4 -15 -10 -15
-5 0 -10 7 -10 15 0 8 5 15 10 15 6 0 10 -7 10 -15z m-1310 -5 c19 -5 62 -16
96 -24 72 -18 164 -58 147 -63 -6 -2 -51 6 -100 18 -48 12 -95 22 -103 23 -64
10 -110 30 -110 50 0 9 30 7 70 -4z m1275 0 c-3 -5 -16 -10 -28 -10 -18 0 -19
2 -7 10 20 13 43 13 35 0z m-675 -37 c0 -5 -4 -15 -10 -23 -11 -18 -25 -7 -17
15 6 15 27 21 27 8z m620 -12 c0 -15 -11 -20 -61 -25 -38 -5 -66 -3 -72 3 -7
7 -2 12 14 15 46 11 104 24 112 25 4 1 7 -7 7 -18z m53 5 c3 -8 -2 -16 -14
-19 -14 -4 -19 0 -19 14 0 22 25 26 33 5z m41 -1 c3 -9 0 -15 -9 -15 -9 0 -12
6 -9 15 4 8 7 15 9 15 2 0 5 -7 9 -15z m76 -1 c0 -11 -8 -14 -27 -12 -39 4
-42 28 -4 28 21 0 31 -5 31 -16z m-930 -15 c0 -5 -10 -9 -21 -9 -18 0 -19 2
-9 15 12 15 30 12 30 -6z m-615 -22 c33 -13 69 -28 80 -32 18 -7 18 -9 2 -12
-27 -7 -177 56 -177 74 0 7 21 0 95 -30z m215 12 c25 -5 55 -11 67 -13 12 -2
36 -7 55 -11 30 -7 31 -8 12 -16 -13 -4 -39 -2 -65 8 -24 8 -65 17 -91 20 -27
3 -56 12 -65 20 -20 16 -23 16 87 -8z m676 2 c-6 -10 -96 -43 -96 -36 0 7 74
44 88 45 7 0 11 -4 8 -9z m334 -1 c0 -5 -4 -10 -10 -10 -5 0 -10 5 -10 10 0 6
5 10 10 10 6 0 10 -4 10 -10z m-43 -19 c11 -17 6 -20 -50 -34 -105 -26 -169
-36 -262 -41 -104 -6 -96 8 10 19 39 4 75 11 82 17 6 5 24 11 40 13 15 2 28 4
28 5 0 2 118 37 130 39 6 0 15 -7 22 -18z m455 13 c35 -6 38 -9 44 -50 4 -31
2 -54 -9 -77 -9 -17 -26 -65 -39 -104 -23 -73 -39 -96 -31 -45 3 20 2 23 -5
12 -5 -8 -13 -35 -16 -60 -6 -38 -21 -100 -42 -169 -3 -8 -7 -11 -11 -8 -3 4
6 57 21 119 59 257 82 368 75 368 -4 0 -19 -53 -34 -117 -15 -65 -38 -161 -51
-213 -13 -52 -30 -147 -39 -210 -9 -63 -20 -126 -25 -140 -8 -25 -8 -25 -9 -2
-1 29 15 143 35 239 16 80 18 141 3 88 -5 -20 -6 -11 -3 30 3 33 10 67 15 75
6 10 7 -1 4 -30 l-5 -45 11 40 c5 22 8 60 6 85 -5 58 19 202 36 212 15 9 21
10 69 2z m118 -20 c0 -14 -4 -23 -10 -19 -5 3 -10 15 -10 26 0 10 5 19 10 19
6 0 10 -12 10 -26z m-263 -50 c18 -90 17 -139 -6 -259 -11 -60 -21 -125 -21
-143 0 -20 -4 -31 -10 -27 -7 4 -9 71 -8 183 3 166 4 177 22 174 11 -2 15 1
11 7 -3 6 -13 11 -21 11 -10 0 -14 14 -14 53 0 30 3 57 7 61 15 15 28 -4 40
-60z m48 49 c-3 -10 -9 -40 -13 -68 l-6 -50 -12 50 c-19 77 -18 85 12 85 21 0
25 -4 19 -17z m165 -5 c0 -19 -2 -20 -10 -8 -13 19 -13 30 0 30 6 0 10 -10 10
-22z m-1515 2 c17 -7 15 -9 -12 -9 -17 -1 -35 4 -38 9 -7 12 22 12 50 0z
m1185 -41 l0 -52 -45 5 c-53 6 -75 22 -75 53 0 20 7 24 58 33 31 5 58 10 60
11 1 0 2 -22 2 -50z m58 4 c-2 -36 -7 -49 -20 -51 -15 -3 -18 4 -18 47 0 45 3
51 21 51 18 0 20 -5 17 -47z m-1148 17 c0 -5 -11 -10 -24 -10 -14 0 -28 5 -31
10 -4 6 7 10 24 10 17 0 31 -4 31 -10z m210 0 c11 -7 5 -10 -22 -10 -21 0 -38
5 -38 10 0 13 40 13 60 0z m735 -48 c7 -23 10 -42 6 -42 -83 -6 -455 2 -469 9
-12 8 34 9 156 4 138 -5 172 -3 172 7 0 10 -15 12 -62 8 -35 -3 -88 -2 -118 1
-51 6 -47 7 52 13 59 4 117 12 128 18 22 12 98 29 114 26 5 -1 15 -21 21 -44z
m482 -9 c-3 -10 -5 -2 -5 17 0 19 2 27 5 18 2 -10 2 -26 0 -35z m62 -176 l1
-178 -50 -74 c-27 -41 -56 -78 -63 -82 -8 -4 -18 -15 -23 -24 -15 -26 -64 -82
-69 -77 -6 6 41 105 52 109 16 7 87 141 108 204 14 45 20 93 21 195 3 158 3
163 14 130 4 -14 8 -105 9 -203z m-1732 202 l28 -11 -28 -10 c-20 -7 -32 -6
-42 2 -34 28 -9 39 42 19z m192 2 c24 -15 -43 -43 -84 -35 -19 3 -35 10 -35
15 0 23 91 38 119 20z m216 -10 c42 -6 30 -8 -73 -12 -115 -4 -131 -2 -115 14
8 9 124 7 188 -2z m-87 -36 c-8 -9 -168 -22 -168 -14 0 4 8 10 18 12 24 7 156
8 150 2z m87 -15 c-3 -5 -16 -10 -28 -9 -21 0 -21 1 -2 9 28 12 37 12 30 0z
m220 -44 c8 -10 25 -26 38 -35 13 -9 43 -29 67 -44 58 -39 61 -28 2 13 -29 20
-42 35 -34 38 15 5 92 -65 89 -81 -1 -5 23 -25 53 -44 52 -33 48 -26 -16 25
l-29 23 40 -23 c22 -12 54 -32 72 -43 17 -11 60 -36 94 -55 63 -35 199 -163
199 -187 0 -7 21 -37 46 -68 52 -65 83 -135 59 -135 -18 0 -20 -17 -2 -23 6
-2 9 -7 6 -11 -13 -14 -66 21 -121 79 -31 33 -60 57 -64 53 -10 -11 104 -131
145 -152 18 -9 31 -19 28 -22 -3 -3 -14 -1 -24 4 -25 13 -113 21 -113 11 0 -5
16 -9 37 -9 20 0 34 -2 31 -5 -3 -3 -139 -10 -302 -15 -227 -8 -337 -16 -467
-35 -93 -14 -176 -28 -184 -31 -20 -8 -19 -3 10 58 67 146 156 352 180 423 68
195 138 357 144 329 2 -10 9 -27 16 -38z m707 -56 c2 -61 3 -124 0 -140 -4
-25 -7 -28 -23 -19 -10 5 -19 17 -19 26 0 15 -15 72 -46 172 l-13 43 39 -4
c22 -2 40 0 40 4 0 5 -18 8 -40 8 -22 0 -40 5 -40 10 0 6 22 10 49 10 l48 0 5
-110z m57 -113 c-2 -218 -5 -225 -19 -47 l-9 115 3 -155 c1 -85 -1 -141 -5
-125 -4 17 -7 121 -8 233 -1 200 -1 203 19 192 19 -10 20 -20 19 -213z m267
121 c-7 -76 -34 -163 -64 -205 -11 -16 -23 -39 -27 -53 -4 -14 -16 -37 -26
-52 -11 -14 -19 -34 -19 -45 0 -13 6 -9 20 15 26 43 34 41 13 -3 -9 -19 -22
-35 -29 -35 -6 0 -21 -24 -33 -52 -41 -98 -40 -96 -40 -70 -1 12 5 37 12 55 8
18 17 50 21 72 4 22 12 45 17 51 5 7 11 25 13 42 3 17 9 38 14 49 5 10 12 34
15 53 3 19 13 53 23 75 10 22 19 45 20 50 2 12 32 98 46 135 17 45 32 -3 24
-82z m32 -42 c-3 -70 -11 -107 -33 -161 -28 -69 -84 -169 -91 -162 -2 2 14 39
35 83 56 114 70 163 76 261 6 110 6 112 12 89 3 -11 3 -61 1 -110z m-488 104
c0 -7 -24 -8 -67 -4 -91 9 -92 14 -5 14 43 0 72 -4 72 -10z m-311 -22 c13 -5
21 -11 18 -14 -8 -8 -75 15 -83 28 -6 10 11 6 65 -14z m183 2 c77 -9 88 -14
88 -40 0 -10 5 -22 10 -25 6 -3 10 -15 10 -25 0 -17 -3 -17 -48 5 -27 13 -70
26 -98 30 -48 7 -104 30 -104 42 0 6 28 2 135 -22 81 -17 93 -18 80 -6 -12 10
-77 27 -159 41 -33 5 -62 13 -65 16 -3 4 14 4 39 0 25 -4 75 -11 112 -16z
m-247 -30 c33 -12 80 -30 105 -40 64 -26 84 -34 95 -35 49 -8 167 -58 184 -78
9 -12 20 -107 12 -107 -2 0 -22 15 -45 33 -23 19 -63 44 -91 58 -27 13 -64 34
-81 46 -17 13 -38 23 -46 23 -9 0 -21 7 -28 15 -7 8 -18 15 -26 15 -7 0 -19 6
-26 13 -7 7 -41 29 -75 47 -35 19 -63 39 -63 44 0 4 6 4 13 -2 7 -6 39 -20 72
-32z m424 -61 c21 -70 -4 -66 -38 6 -27 58 -27 69 2 50 13 -8 29 -34 36 -56z
m-446 30 c42 -21 117 -74 117 -83 0 -4 -15 3 -32 16 -18 14 -42 28 -53 32 -23
7 -74 45 -62 46 5 0 18 -5 30 -11z m386 -75 c15 -15 14 -16 -9 -9 -27 8 -110
53 -110 60 0 10 104 -35 119 -51z m-196 -34 c26 -17 64 -37 83 -45 55 -23 151
-97 163 -125 17 -43 24 -93 12 -86 -6 4 -11 11 -11 17 0 17 -45 79 -57 79 -6
0 -14 8 -18 18 -5 14 -120 95 -196 138 -28 16 -46 34 -33 34 6 0 31 -14 57
-30z m277 0 c0 -5 -4 -10 -10 -10 -5 0 -10 5 -10 10 0 6 5 10 10 10 6 0 10 -4
10 -10z m350 -78 c-11 -23 -25 -54 -31 -69 -5 -14 -12 -23 -16 -20 -3 4 9 36
27 73 17 36 34 64 36 61 2 -2 -5 -22 -16 -45z m-336 -37 c3 -31 2 -42 -3 -30
-12 29 -23 113 -12 95 5 -8 11 -37 15 -65z m-34 36 c0 -16 2 -38 5 -48 3 -10
-1 -4 -9 12 -18 35 -20 65 -6 65 6 0 10 -13 10 -29z m190 -28 c-11 -17 -11
-17 -6 0 3 10 7 28 7 40 2 22 2 22 6 0 2 -12 -1 -30 -7 -40z m-112 -6 c13 -58
16 -104 5 -93 -10 9 -32 95 -33 124 0 40 15 23 28 -31z m616 -65 c-4 -21 -8
-40 -9 -44 -2 -5 -3 -12 -4 -17 0 -5 -10 -12 -21 -16 -22 -7 -289 -152 -308
-167 -7 -6 -15 -8 -18 -5 -3 3 43 43 103 88 59 46 142 116 183 156 79 76 89
77 74 5z m-529 -59 c-10 -53 -18 -32 -9 24 4 26 10 40 12 30 2 -11 1 -35 -3
-54z m55 20 c-11 -17 -11 -17 -6 0 3 10 6 24 7 30 0 9 2 9 5 0 3 -7 0 -20 -6
-30z m-123 -50 c-3 -10 -5 -4 -5 12 0 17 2 24 5 18 2 -7 2 -21 0 -30z m-37
-37 c0 -18 -17 8 -24 34 l-7 25 15 -25 c9 -14 15 -29 16 -34z m-29 -8 c11 -21
11 -22 -4 -9 -10 7 -17 17 -17 22 0 15 9 10 21 -13z m126 -10 c-3 -8 -6 -5 -6
6 -1 11 2 17 5 13 3 -3 4 -12 1 -19z m-67 -76 c0 -15 -2 -15 -10 -2 -13 20
-13 33 0 25 6 -3 10 -14 10 -23z m-14 -236 c-8 -14 -25 -42 -37 -63 -12 -21
-32 -56 -44 -78 -13 -22 -30 -65 -40 -95 -9 -30 -23 -68 -30 -85 -7 -16 -24
-57 -38 -89 -13 -33 -28 -61 -34 -63 -8 -3 -25 72 -40 177 -5 40 -2 45 162
215 98 101 134 130 101 81z m4 -67 c-7 -11 -14 -19 -16 -16 -7 7 7 37 17 37 6
0 5 -9 -1 -21z m-44 -111 c-15 -40 -36 -91 -46 -113 -10 -22 -23 -58 -30 -80
-18 -55 -58 -135 -70 -135 -21 0 -17 22 24 106 24 49 47 100 51 114 7 22 19
49 73 157 28 56 26 26 -2 -49z m98 -95 c-4 -82 -7 -160 -6 -175 0 -16 -3 -28
-8 -28 -18 0 -22 72 -11 195 6 69 11 132 11 140 0 8 5 15 11 15 7 0 8 -43 3
-147z m456 95 c78 -31 133 -44 275 -65 l50 -7 -55 -7 c-30 -4 -77 -10 -105
-14 -40 -5 -61 -3 -105 15 -62 24 -190 105 -190 120 0 10 -2 11 130 -42z m-43
-115 c50 -67 59 -84 47 -94 -11 -9 -19 -4 -41 22 -53 63 -80 104 -86 134 -3
17 -8 39 -12 50 -5 16 -3 15 12 -5 10 -13 46 -61 80 -107z m91 -60 c-15 -19
-30 -7 -88 74 -81 112 -80 113 12 21 58 -57 82 -87 76 -95z m3 80 c27 -14 48
-31 46 -37 -7 -20 -33 -11 -77 27 -51 43 -38 48 31 10z m-483 -220 c1 -21 4
-56 8 -78 4 -30 3 -37 -5 -29 -15 14 -28 160 -14 151 5 -3 10 -23 11 -44z"/>
<path d="M4830 5495 c-13 -58 -21 -108 -18 -111 3 -3 13 30 23 73 9 43 20 93
25 111 5 17 5 32 1 32 -5 0 -18 -47 -31 -105z"/>
<path d="M4330 5510 c-10 -6 2 -9 42 -8 31 1 55 5 52 10 -7 11 -76 10 -94 -2z"/>
<path d="M4154 5252 c4 -7 35 -30 68 -53 82 -54 168 -129 178 -154 l9 -20 0
20 c1 23 -54 95 -72 95 -7 0 -28 13 -47 29 -19 15 -48 36 -65 45 -16 9 -41 24
-55 34 -13 9 -21 11 -16 4z"/>
<path d="M11801 6654 c0 -11 3 -14 6 -6 3 7 2 16 -1 19 -3 4 -6 -2 -5 -13z"/>
<path d="M3816 6619 c-12 -40 -26 -138 -25 -178 l1 -46 9 50 c26 154 29 178
25 183 -3 3 -7 -1 -10 -9z"/>
<path d="M3847 6453 c-7 -71 -7 -289 -1 -263 9 33 21 315 14 323 -4 4 -10 -23
-13 -60z"/>
<path d="M12760 6204 c-33 -15 -235 -71 -330 -92 -29 -6 -36 -10 -20 -11 56
-2 390 92 390 110 0 11 2 11 -40 -7z"/>
<path d="M4435 5815 c-96 -25 -305 -119 -292 -131 2 -2 35 12 73 31 90 45 241
93 329 104 l70 8 -65 1 c-36 0 -87 -6 -115 -13z"/>
<path d="M5405 4972 c-22 -10 -67 -24 -100 -31 -33 -7 -94 -23 -135 -36 -99
-32 -232 -66 -237 -61 -7 6 173 62 277 86 52 13 102 27 110 32 10 6 6 7 -15 3
-16 -4 -61 -13 -100 -21 -85 -18 -229 -62 -269 -82 -24 -12 -27 -16 -14 -23
19 -11 83 1 198 36 47 14 123 35 170 46 47 12 97 27 112 35 14 8 38 14 52 14
14 0 26 5 26 10 0 15 -30 12 -75 -8z"/>
<path d="M5659 4880 c-20 -12 -259 -76 -319 -86 -25 -4 -39 -9 -32 -12 28 -9
364 76 386 98 13 13 -14 13 -35 0z"/>
<path d="M7544 3945 c16 -63 29 -785 14 -785 -4 0 -8 -12 -10 -27 -2 -19 -7
-7 -16 40 -7 37 -9 73 -5 80 5 7 10 -8 14 -38 3 -29 6 5 6 80 -1 115 -1 121
-7 50 -5 -64 -7 -43 -10 105 -2 102 -2 217 -2 255 2 78 -6 128 -18 120 -4 -2
-5 -124 -3 -269 5 -255 5 -265 -13 -260 -14 4 -24 24 -37 72 -24 88 -36 139
-43 182 -3 19 -12 50 -20 68 -8 18 -13 36 -10 40 5 8 -12 66 -25 87 -4 6 -10
25 -14 43 -3 17 -11 32 -17 32 -6 0 -7 -8 -3 -17 3 -10 9 -31 12 -48 3 -16 10
-36 16 -43 5 -7 7 -15 4 -18 -9 -10 -27 6 -27 24 -1 9 -7 28 -15 42 -14 25
-14 24 -15 -17 0 -33 7 -50 29 -76 34 -38 59 -137 35 -137 -25 0 -36 -37 -21
-73 8 -17 20 -52 27 -77 8 -25 16 -49 19 -55 3 -5 7 -28 8 -50 2 -22 9 -62 17
-90 22 -76 28 -107 18 -101 -5 3 -15 19 -22 36 -7 18 -22 33 -36 36 -13 3 -24
10 -24 14 0 5 -11 21 -24 37 -13 16 -29 48 -36 71 -6 24 -17 45 -25 48 -7 3
-31 30 -52 61 -20 30 -39 50 -41 45 -5 -17 34 -85 67 -116 17 -17 31 -40 31
-52 0 -21 70 -109 118 -147 12 -10 22 -27 22 -38 0 -25 17 -59 30 -59 5 0 6 7
3 17 -4 11 -3 14 6 9 7 -5 10 -15 7 -23 -4 -9 -2 -21 3 -27 5 -6 16 -30 24
-54 13 -37 13 -42 0 -42 -13 0 -13 -3 -3 -15 7 -9 11 -18 8 -20 -11 -11 -72
31 -125 86 -32 34 -59 55 -61 49 -6 -16 103 -126 148 -151 27 -16 30 -19 10
-14 -14 3 -47 7 -75 9 -27 2 -36 2 -20 -1 82 -12 24 -21 -187 -27 -128 -4
-273 -9 -323 -12 -205 -11 -545 -80 -860 -174 -147 -44 -177 -50 -223 -45 -51
6 -59 4 -175 -54 -67 -33 -148 -70 -181 -82 -75 -28 -146 -75 -146 -98 0 -10
20 -37 45 -60 40 -37 49 -41 97 -41 55 0 40 -8 292 141 60 35 123 78 140 95
74 76 117 103 199 128 274 83 519 129 857 161 178 16 501 25 493 13 -2 -5 -21
-8 -42 -8 -21 0 -55 -7 -74 -15 -20 -8 -55 -15 -77 -15 -23 0 -40 -5 -40 -11
0 -16 77 -6 209 26 57 14 106 24 108 22 2 -2 -34 -19 -79 -37 -82 -32 -84 -33
-205 -27 -74 4 -123 2 -123 -4 0 -5 37 -10 83 -11 161 -3 203 2 284 38 42 18
78 32 80 30 1 -1 -50 -57 -115 -124 -130 -134 -188 -199 -186 -210 12 -83 27
-163 36 -187 18 -54 16 -69 -29 -159 -24 -48 -42 -91 -39 -94 9 -8 46 29 46
47 0 9 9 30 19 47 10 17 22 45 26 62 4 19 13 32 22 32 11 0 14 -7 10 -22 -8
-36 -87 -209 -108 -239 -22 -32 -24 -39 -6 -39 15 0 82 129 119 228 21 58 25
62 53 61 29 -2 85 15 85 25 0 3 -22 2 -50 -1 -36 -4 -50 -2 -50 6 0 7 16 45
36 84 19 39 48 107 64 151 78 220 106 266 75 126 -8 -36 -14 -92 -15 -124 0
-33 -4 -73 -10 -90 -13 -41 -87 -435 -96 -511 -10 -92 6 -58 21 42 20 140 69
373 79 373 5 0 6 -19 3 -42 -16 -120 -28 -182 -42 -215 -17 -41 -18 -43 -7
-43 11 0 30 55 38 110 4 25 10 51 14 59 10 19 2 -161 -9 -211 -8 -36 -7 -40
17 -56 15 -9 30 -20 33 -25 9 -13 22 11 13 25 -4 6 -11 25 -15 42 l-7 31 -1
-32 c-1 -35 -17 -45 -23 -15 -2 9 0 42 3 72 4 30 8 102 9 160 1 104 1 105 15
60 7 -25 21 -70 31 -100 23 -68 26 -274 5 -333 -8 -25 -10 -42 -4 -48 7 -7 15
17 23 66 7 42 16 78 20 80 18 11 9 255 -14 416 -13 90 -21 168 -18 174 4 5 10
-10 14 -35 4 -25 5 5 2 65 -2 61 -7 130 -10 155 -12 80 13 31 35 -70 37 -176
80 -364 101 -445 12 -44 25 -98 30 -120 40 -194 58 -249 45 -140 -8 67 -36
202 -59 284 -9 30 -14 56 -12 58 2 2 20 -24 39 -59 20 -35 50 -76 67 -92 32
-29 92 -138 104 -189 7 -30 23 -36 32 -12 7 18 -19 179 -41 252 -9 29 -24 61
-34 70 -18 18 -41 56 -41 68 0 10 73 -57 192 -177 59 -59 113 -108 119 -108
14 0 -176 194 -235 240 -24 19 -53 52 -63 72 -10 21 -23 38 -29 38 -7 0 -14 6
-17 13 -3 6 -21 47 -41 90 -29 63 -33 78 -20 75 17 -3 123 -163 124 -186 0 -7
17 -30 38 -50 20 -21 60 -62 87 -93 48 -53 142 -119 168 -119 6 1 -1 8 -18 17
-53 28 -113 83 -185 168 -38 45 -70 86 -70 90 0 4 -8 19 -19 33 -18 26 -49 79
-77 131 -7 13 -17 27 -22 30 -14 9 -110 159 -118 184 -3 12 -14 31 -23 41 -25
30 0 13 111 -73 97 -74 98 -76 109 -131 8 -42 24 -74 65 -129 40 -54 53 -78
48 -93 -4 -14 -3 -18 5 -13 7 4 29 -9 50 -28 22 -20 48 -40 60 -46 25 -14 216
-201 260 -256 32 -39 32 -39 14 -6 -25 47 -234 261 -277 285 -19 10 -45 29
-57 42 -21 23 -22 25 -4 44 17 19 18 19 74 -24 31 -24 65 -53 75 -65 11 -11
25 -21 33 -21 7 0 13 -4 13 -10 0 -5 24 -27 53 -49 28 -21 67 -53 85 -70 31
-29 71 -44 57 -21 -3 6 -9 10 -13 10 -4 0 -32 24 -63 53 -31 28 -75 66 -100
82 -24 17 -63 48 -87 70 -24 22 -55 46 -68 53 -20 10 -23 16 -14 27 9 11 24 5
83 -32 40 -26 87 -58 105 -71 18 -14 36 -22 40 -18 4 4 -2 14 -13 21 -11 8
-25 19 -31 24 -7 5 -34 21 -60 35 -27 15 -59 34 -72 44 -22 17 -22 19 -7 32
15 12 24 10 74 -16 124 -67 227 -126 241 -138 27 -23 60 -38 60 -26 0 6 -8 14
-17 17 -10 4 -43 23 -73 43 -30 21 -89 56 -130 79 -100 57 -107 65 -45 57 27
-3 63 -10 80 -15 33 -11 202 -41 224 -41 41 0 -44 21 -269 66 -14 3 -36 8 -50
11 -25 6 -25 6 5 13 55 14 198 10 242 -5 24 -8 69 -17 100 -20 54 -4 53 -4
-22 12 -88 18 -82 29 8 15 31 -5 57 -6 57 -1 0 7 -68 20 -210 39 -74 10 -116
21 -175 45 -16 7 -46 18 -66 24 -35 11 -112 61 -93 61 10 0 142 -24 224 -40
78 -15 230 -17 230 -2 0 4 -21 7 -47 7 -27 1 -68 4 -93 7 -25 4 -79 10 -120
13 -41 3 -95 12 -120 20 -25 7 -67 16 -95 20 -45 6 -379 144 -370 153 11 11
240 -45 307 -75 58 -25 101 -36 170 -44 51 -5 121 -14 156 -20 52 -10 74 -8
138 7 84 19 115 46 95 81 -9 15 -10 15 -11 2 0 -8 -11 -26 -25 -39 -23 -22
-33 -24 -143 -24 -169 -1 -279 18 -383 65 -48 22 -113 44 -145 49 -33 5 -79
12 -104 16 l-45 8 35 7 c19 4 96 10 170 14 316 14 451 35 655 103 87 28 91 30
84 37 -3 2 -29 -4 -57 -15 -75 -29 -274 -77 -367 -90 -80 -10 -497 -32 -503
-25 -7 7 99 35 188 49 52 9 147 25 210 36 63 11 143 20 177 20 62 0 143 24
143 41 0 12 -17 12 -25 0 -6 -11 -66 -21 -146 -26 -83 -4 -207 -23 -258 -39
-52 -16 -158 -30 -126 -16 11 4 63 18 115 30 52 13 115 30 140 40 25 9 79 25
120 35 41 9 89 23 105 30 17 7 39 15 50 18 15 3 13 5 -8 6 -15 0 -40 -5 -55
-13 -15 -7 -52 -19 -82 -26 -30 -6 -104 -27 -165 -45 -60 -19 -131 -39 -156
-44 -25 -6 -54 -13 -65 -17 -16 -5 -16 -4 -4 5 21 15 186 65 303 93 55 12 94
24 88 26 -15 5 -196 -36 -286 -65 -44 -14 -113 -44 -153 -65 -40 -22 -75 -38
-78 -35 -6 6 107 72 253 147 67 34 127 68 133 75 7 8 15 48 19 90 6 68 10 79
39 106 18 17 32 35 32 41 0 12 -27 -6 -52 -37 -17 -19 -18 -18 -18 44 0 78
-19 191 -31 191 -5 0 -7 -10 -4 -22 3 -13 9 -72 15 -133 l9 -110 -72 -73 c-40
-41 -128 -117 -197 -171 -143 -111 -174 -131 -110 -70 177 166 250 242 250
257 0 10 11 47 25 83 14 35 34 108 45 163 22 111 23 116 12 116 -4 0 -13 -33
-19 -72 -6 -40 -23 -107 -36 -148 -50 -151 -62 -169 -214 -315 -79 -75 -143
-134 -143 -130 0 3 35 46 78 94 139 154 186 235 229 395 34 127 69 406 48 385
-10 -11 -35 -166 -35 -219 0 -52 -43 -247 -58 -262 -4 -4 -7 57 -6 135 0 103
-5 165 -18 226 -17 78 -18 87 -3 124 13 34 14 38 2 28 -8 -6 -20 -25 -27 -41
-15 -37 -30 -30 -30 15 0 19 -5 37 -11 40 -6 5 -8 23 -4 49 11 65 -10 30 -25
-41 -8 -41 -18 -63 -27 -63 -10 0 -11 -5 -3 -19 5 -11 10 -29 10 -40 0 -12 4
-21 9 -21 17 0 23 -88 7 -117 -8 -16 -29 -64 -46 -108 -17 -44 -28 -69 -25
-55 2 14 16 76 30 138 14 63 24 119 22 125 -2 7 -12 -24 -22 -68 -61 -282 -96
-415 -108 -415 -5 0 -6 8 -3 18 27 89 117 505 110 511 -7 8 -10 -2 -49 -174
-66 -292 -76 -338 -86 -410 -5 -38 -14 -90 -19 -115 -7 -37 -8 -30 -4 38 2 45
13 125 24 178 21 99 26 165 10 114 -7 -21 -8 -22 -9 -5 -1 33 11 95 19 95 4 0
5 -12 2 -27 -2 -16 -2 -25 2 -22 4 4 9 51 11 105 1 55 12 140 23 189 28 127
34 175 22 175 -5 0 -9 -3 -9 -7 1 -5 1 -24 0 -43 -2 -34 -2 -34 -17 -15 -15
19 -16 17 -10 -25 6 -47 -13 -200 -25 -200 -4 0 -10 28 -15 63 -4 34 -8 69
-10 77 -24 149 -54 252 -74 258 -9 3 -11 -3 -6 -23z m65 -246 c33 -175 34
-186 11 -319 -12 -69 -22 -140 -22 -158 0 -38 -15 -31 -19 8 -4 48 1 583 6
579 2 -3 13 -52 24 -110z m229 34 c-2 -24 -6 -30 -16 -24 -10 6 -12 21 -6 57
6 43 8 46 16 24 5 -13 8 -39 6 -57z m52 -60 c0 -7 -4 -13 -10 -13 -5 0 -10 12
-10 28 0 21 2 24 10 12 5 -8 10 -21 10 -27z m-50 2 c0 -8 -4 -15 -10 -15 -5 0
-10 7 -10 15 0 8 5 15 10 15 6 0 10 -7 10 -15z m6 -83 c-12 -11 -18 7 -10 30
l8 23 4 -23 c2 -13 1 -26 -2 -30z m58 17 c3 -17 6 -105 6 -196 l0 -164 -42
-62 c-23 -34 -66 -91 -97 -127 -30 -36 -57 -67 -58 -69 -2 -2 -5 -2 -8 1 -7 7
36 98 46 98 14 0 87 145 114 225 25 74 27 89 23 203 -5 117 2 157 16 91z m-76
-131 c-5 -101 -18 -145 -62 -218 -9 -14 -22 -41 -31 -60 -8 -19 -19 -42 -24
-50 -5 -8 -24 -54 -42 -102 -36 -93 -58 -120 -33 -40 8 26 20 68 26 95 6 26
15 47 20 47 4 0 8 12 8 27 0 30 3 39 66 223 60 174 62 180 70 180 4 0 4 -46 2
-102z m42 -4 c0 -114 -32 -219 -100 -329 -37 -60 -32 -34 10 51 40 81 49 111
28 98 -7 -4 -8 -3 -4 5 4 6 11 9 15 6 15 -9 31 73 31 159 0 51 4 86 10 86 6 0
10 -32 10 -76z m-466 34 c19 -71 29 -119 31 -148 2 -19 1 -27 -2 -18 -2 9 -10
15 -17 12 -8 -3 -23 21 -41 67 -27 69 -27 73 -10 86 23 16 35 17 39 1z m221
-243 c-3 -26 -8 -45 -11 -43 -2 3 -1 26 2 52 4 25 9 44 12 42 2 -3 1 -26 -3
-51z m-192 -25 c5 -43 5 -44 -8 -20 -8 14 -14 38 -15 55 0 43 17 18 23 -35z
m31 -20 c4 -21 3 -31 -3 -25 -5 6 -12 33 -15 60 -6 52 5 31 18 -35z m35 33 c6
-21 13 -58 17 -83 9 -62 -9 -40 -25 30 -7 30 -15 63 -18 73 -2 9 0 17 6 17 6
0 15 -17 20 -37z m279 -29 c-11 -27 -23 -44 -25 -37 -5 13 36 98 43 91 2 -3
-6 -27 -18 -54z m352 -8 c0 -8 -5 -38 -12 -66 -8 -37 -18 -54 -33 -60 -20 -8
-152 -79 -284 -153 -67 -37 -60 -24 16 34 116 88 220 175 258 216 43 45 55 52
55 29z m-538 -103 l-10 -48 -1 60 c-1 43 2 56 10 48 8 -8 9 -25 1 -60z m129 5
c-24 -39 -28 -30 -5 13 8 17 18 28 21 25 3 -3 -4 -20 -16 -38z m-74 0 c-3 -8
-6 -5 -6 6 -1 11 2 17 5 13 3 -3 4 -12 1 -19z m-117 -32 c0 -13 3 -33 6 -43 4
-14 4 -15 -4 -3 -15 25 -23 70 -12 70 5 0 10 -11 10 -24z m-50 -36 c0 -13 -1
-13 -10 0 -5 8 -10 22 -10 30 0 13 1 13 10 0 5 -8 10 -22 10 -30z m107 -32
c-3 -8 -6 -5 -6 6 -1 11 2 17 5 13 3 -3 4 -12 1 -19z m-67 -69 c0 -6 -4 -7
-10 -4 -5 3 -10 11 -10 16 0 6 5 7 10 4 6 -3 10 -11 10 -16z m225 -223 c44
-19 103 -45 130 -59 28 -13 68 -30 90 -37 22 -7 72 -34 112 -61 39 -27 77 -49
85 -49 7 -1 27 -7 43 -15 l30 -15 -40 6 c-52 7 -193 50 -252 76 -55 24 -301
188 -282 188 2 0 40 -15 84 -34z m-254 -34 c-12 -17 -21 -33 -21 -36 0 -3 -16
-31 -35 -63 -20 -32 -42 -80 -50 -106 -8 -27 -33 -95 -56 -153 -34 -86 -44
-102 -55 -93 -8 6 -14 28 -14 48 0 20 -7 61 -15 91 -13 48 -13 57 1 78 8 13
22 26 30 29 8 3 14 11 14 18 0 7 48 60 106 119 102 103 139 130 95 68z m15
-48 c-4 -9 -9 -15 -11 -12 -3 3 -3 13 1 22 4 9 9 15 11 12 3 -3 3 -13 -1 -22z
m-16 -40 c0 -3 -13 -38 -29 -77 -16 -40 -46 -115 -66 -167 -48 -123 -62 -150
-80 -150 -21 0 -19 8 26 100 22 46 47 104 56 129 8 25 21 53 29 62 8 8 14 19
14 22 0 15 35 87 42 87 5 0 8 -3 8 -6z m208 -76 c18 -40 32 -79 32 -86 0 -7
13 -32 29 -55 31 -46 101 -186 101 -203 0 -6 10 -19 21 -30 12 -10 26 -30 31
-44 8 -21 58 -244 58 -259 0 -15 -19 20 -30 54 -18 58 -44 107 -72 135 -52 53
-137 177 -152 222 -22 68 -49 188 -43 195 3 3 11 -15 17 -38 20 -80 78 -219
90 -219 8 0 -5 39 -37 110 -11 25 -24 68 -27 97 -4 28 -20 83 -36 122 -38 93
-23 92 18 -1z m-138 -125 c-5 -87 -10 -162 -10 -166 0 -5 -5 -5 -11 -1 -9 5
-10 45 -6 143 8 164 16 220 29 198 5 -9 4 -84 -2 -174z m438 137 c105 -42 168
-58 267 -66 79 -7 97 -24 25 -24 -30 0 -74 -5 -98 -10 -34 -8 -54 -7 -90 5
-63 21 -212 112 -212 129 0 9 0 9 108 -34z m5 -163 c21 -27 27 -41 19 -49 -14
-14 -25 -6 -76 61 -38 49 -64 111 -66 154 0 5 21 -22 46 -60 26 -37 60 -85 77
-106z m59 -19 c-15 -15 -26 -5 -85 75 -79 108 -78 109 13 19 59 -59 80 -86 72
-94z m-466 115 c-10 -10 -19 5 -10 18 6 11 8 11 12 0 2 -7 1 -15 -2 -18z m482
-39 c44 -26 51 -38 27 -48 -12 -4 -71 38 -115 82 -12 11 49 -12 88 -34z m-494
-236 c4 -37 9 -75 13 -85 5 -15 4 -16 -8 -5 -9 8 -15 41 -17 90 -5 93 4 93 12
0z"/>
<path d="M7656 3893 c4 -16 11 -39 15 -53 6 -22 7 -23 8 -4 2 34 -11 84 -20
84 -5 0 -6 -12 -3 -27z"/>
<path d="M1173 3273 c-38 -85 -49 -121 -64 -203 -22 -123 -31 -235 -34 -429
-3 -124 -8 -198 -15 -205 -8 -8 -10 8 -9 59 3 79 -8 270 -21 360 -10 66 -5
-106 9 -340 4 -71 6 -132 4 -135 -10 -11 -23 29 -23 70 -1 47 -28 125 -29 84
-1 -12 4 -34 9 -51 7 -19 7 -38 1 -54 -11 -29 -9 -33 -52 116 -30 106 -31 115
-25 240 3 72 9 144 12 160 5 23 4 27 -5 19 -7 -6 -14 -60 -18 -132 -3 -67 -10
-122 -15 -122 -4 0 -8 11 -8 25 0 14 -9 44 -19 68 -21 47 -35 115 -55 262 -13
103 -11 171 7 193 14 18 1 27 -18 12 -17 -14 -21 -150 -6 -210 5 -19 14 -75
21 -125 7 -49 18 -99 23 -110 6 -11 16 -42 23 -70 7 -27 28 -93 47 -146 19
-53 37 -111 40 -130 l7 -34 -20 25 c-12 15 -18 18 -14 8 8 -24 -13 -23 -25 1
-6 10 -31 27 -56 37 -25 11 -45 22 -45 27 0 4 -6 7 -13 7 -8 0 -28 18 -45 39
l-32 39 37 77 c27 57 33 79 24 88 -8 8 -11 6 -11 -10 0 -11 -10 -35 -23 -54
-12 -19 -29 -50 -36 -69 -8 -19 -17 -38 -21 -43 -9 -10 -118 51 -135 76 -18
28 -45 131 -45 172 0 17 13 52 30 78 33 52 35 57 21 57 -5 0 -24 -23 -41 -51
-31 -47 -32 -54 -27 -114 4 -36 11 -74 17 -85 6 -11 8 -20 4 -20 -8 0 -112
105 -152 155 -20 25 -32 33 -32 23 0 -19 56 -89 113 -140 23 -21 37 -38 30
-38 -7 0 -20 8 -30 19 -10 10 -29 24 -41 30 -13 7 -41 29 -63 48 -21 19 -39
31 -39 25 0 -15 93 -93 220 -185 89 -64 138 -106 122 -107 -8 0 -51 18 -96 40
-84 41 -144 91 -224 185 -23 28 -42 44 -42 36 0 -14 66 -99 113 -144 16 -15
27 -30 25 -33 -11 -10 -65 31 -108 82 -25 29 -47 50 -49 48 -9 -8 25 -60 62
-96 47 -46 24 -52 -26 -8 -19 17 -38 30 -42 30 -4 0 -25 16 -48 35 -22 19 -45
35 -51 35 -21 0 81 -93 139 -126 33 -19 78 -46 100 -58 38 -23 55 -49 69 -110
7 -27 6 -28 -10 -15 -9 8 -28 38 -40 67 -13 28 -29 52 -35 52 -7 0 -8 -7 -4
-17 4 -10 10 -29 13 -43 l5 -25 -31 28 c-16 16 -32 24 -36 19 -3 -5 20 -28 51
-51 53 -39 94 -91 72 -91 -39 0 -294 176 -286 198 1 4 -2 8 -8 10 -26 9 -12
-22 25 -55 24 -21 53 -48 67 -61 13 -12 38 -28 56 -36 18 -7 39 -21 47 -31 14
-17 13 -17 -10 -10 -14 4 -44 18 -67 31 -23 13 -48 24 -56 24 -8 0 -21 10 -30
23 -8 12 -18 19 -22 15 -23 -22 158 -121 241 -133 58 -7 107 -34 124 -66 11
-20 10 -21 -11 -15 -13 4 -42 12 -63 17 -22 6 -46 19 -53 29 -14 19 -36 28
-30 13 8 -26 -39 -12 -109 33 -52 33 -74 41 -74 27 1 -8 64 -57 102 -79 11 -7
34 -25 51 -42 18 -16 42 -33 55 -37 12 -3 22 -11 22 -17 0 -5 -7 -7 -16 -4 -9
3 -19 6 -24 6 -4 0 -36 22 -70 50 -34 27 -67 50 -72 50 -16 0 2 -19 48 -50 24
-17 44 -36 44 -42 0 -16 -98 5 -178 38 -38 16 -42 17 -42 6 0 -20 149 -63 227
-66 17 -1 40 -9 51 -19 10 -9 24 -17 30 -17 30 0 17 -21 -25 -41 -33 -15 -43
-23 -31 -26 10 -3 37 5 60 18 24 12 51 25 60 30 37 19 109 2 134 -30 10 -13 4
-19 -30 -34 -22 -10 -65 -25 -95 -33 -30 -7 -56 -16 -59 -19 -11 -11 36 -3 88
15 35 12 70 17 95 14 26 -3 83 6 160 25 74 19 121 26 124 20 2 -6 10 -5 20 4
15 13 110 42 116 35 4 -5 -41 -139 -65 -193 -12 -27 -44 -111 -72 -185 -27
-74 -60 -155 -74 -179 -13 -24 -24 -47 -24 -52 0 -8 -112 -264 -159 -364 -11
-22 -35 -80 -55 -130 -20 -49 -47 -112 -61 -140 -13 -27 -33 -71 -44 -97 -42
-101 -143 -221 -232 -276 -61 -37 -99 -98 -161 -255 -16 -43 -41 -120 -53
-170 -23 -90 -23 -92 -5 -111 12 -13 26 -17 42 -13 29 8 128 95 128 113 0 7
12 21 27 31 16 9 46 35 69 58 35 37 42 52 53 115 35 196 68 305 130 430 58
116 89 186 178 400 19 47 57 132 83 190 105 226 180 399 213 495 41 116 69
189 101 259 13 28 26 58 29 66 4 11 6 9 6 -5 1 -11 12 -32 25 -46 21 -23 166
-127 215 -154 11 -6 27 -17 37 -25 16 -14 16 -13 5 5 -7 11 -39 35 -72 54 -70
41 -126 87 -118 96 4 3 30 -14 58 -39 28 -25 69 -55 91 -66 21 -11 42 -24 45
-30 4 -6 37 -26 73 -45 112 -57 201 -132 238 -198 17 -33 34 -73 37 -91 4 -26
41 -93 63 -116 8 -7 -13 44 -34 87 -11 21 -23 52 -26 69 -4 16 -24 58 -45 92
-33 54 -52 71 -147 133 -60 38 -110 74 -112 79 -4 11 30 -6 73 -36 17 -11 46
-27 65 -34 53 -20 96 -54 198 -158 52 -51 96 -91 98 -89 3 3 -46 56 -108 118
-99 100 -177 159 -210 159 -5 0 -24 11 -42 25 -18 14 -40 25 -48 25 -9 0 -21
7 -28 15 -7 8 -18 15 -24 15 -7 0 -22 9 -34 21 -12 11 -35 26 -50 32 -52 24
-94 49 -89 53 3 3 13 1 24 -4 10 -6 36 -17 58 -25 22 -8 76 -29 120 -45 44
-17 95 -34 113 -37 18 -4 45 -13 60 -21 15 -8 34 -14 42 -14 8 0 38 -15 66
-34 27 -19 106 -57 174 -85 69 -29 136 -62 150 -75 26 -25 99 -60 108 -52 9 9
-10 26 -30 26 -11 0 -42 16 -69 36 -27 20 -70 44 -97 54 -103 39 -179 75 -223
105 -25 18 -61 37 -80 44 -37 13 -98 47 -65 36 10 -3 47 -10 82 -14 35 -5 67
-12 72 -15 5 -3 48 -12 95 -20 47 -9 99 -18 114 -22 15 -4 25 -3 21 1 -8 8
-197 51 -283 64 -27 4 -79 17 -115 29 -36 11 -76 23 -90 26 -29 7 -56 23 -50
29 3 3 43 -3 90 -14 47 -10 94 -18 105 -18 33 0 -54 29 -135 44 l-75 14 65 -6
c36 -3 104 -5 151 -4 70 2 92 -1 120 -18 19 -11 68 -25 109 -31 41 -6 103 -15
136 -20 66 -11 321 -14 311 -4 -3 3 -72 10 -154 15 -260 16 -403 37 -403 59 0
9 352 21 405 15 36 -5 38 -4 15 6 -24 11 -347 21 -620 19 -150 -1 -340 10
-340 20 0 4 26 10 58 13 176 17 258 28 298 42 24 8 70 17 102 21 31 3 91 12
132 19 41 8 97 17 123 20 27 4 46 9 43 12 -8 8 -284 -35 -461 -71 -74 -15
-302 -30 -250 -16 17 4 50 8 75 9 25 1 58 8 74 16 15 8 35 15 43 15 8 0 56 13
106 30 96 31 302 56 437 53 64 -1 65 -1 20 8 -28 6 -81 6 -143 -1 -54 -5 -132
-10 -173 -10 -44 0 -89 -6 -110 -15 -58 -24 -264 -77 -326 -84 -66 -8 -79 4
-17 14 53 9 102 29 119 49 7 9 27 16 44 16 18 0 36 4 42 9 27 26 144 63 228
72 85 9 211 26 351 48 57 9 55 10 -25 5 -47 -3 -119 -12 -160 -20 -41 -8 -95
-14 -119 -14 -63 0 -173 -21 -192 -37 -8 -7 -24 -13 -35 -13 -10 -1 -30 -7
-44 -15 -27 -16 -74 -20 -66 -6 19 30 306 140 373 142 21 1 52 5 68 9 28 7 26
8 -14 9 -44 1 -156 -21 -196 -39 -11 -5 -56 -23 -100 -41 -44 -18 -92 -40
-107 -51 -46 -32 -42 -19 7 25 68 59 124 101 163 121 18 9 44 30 58 46 14 15
40 34 57 41 18 7 50 26 71 41 21 15 47 28 57 28 10 0 21 5 24 11 4 5 18 14 31
19 13 5 24 14 24 20 0 15 -216 -99 -249 -131 -15 -15 -56 -46 -92 -70 -35 -24
-96 -69 -134 -101 -80 -65 -234 -168 -250 -168 -5 1 14 23 43 50 28 27 52 53
52 58 0 5 11 17 25 26 14 9 25 21 25 27 0 6 37 50 81 97 57 60 100 95 143 117
33 17 104 60 156 95 52 36 108 71 124 78 16 7 26 15 22 19 -9 9 -47 -12 -184
-104 -67 -46 -128 -83 -135 -83 -17 1 165 173 248 235 39 28 84 56 100 60 l30
9 -33 4 c-26 3 -42 -4 -80 -35 -26 -21 -91 -71 -145 -112 -53 -40 -126 -99
-162 -132 -36 -32 -68 -59 -71 -59 -8 0 35 70 61 100 12 14 37 48 55 75 39 59
196 241 213 249 9 3 8 5 -1 5 -38 2 -227 -219 -321 -377 -24 -41 -69 -101
-100 -136 -31 -34 -78 -86 -104 -116 l-48 -55 19 40 c10 22 34 78 52 125 18
47 41 103 51 126 11 22 19 46 19 53 0 7 9 30 19 50 10 20 37 74 60 121 34 72
66 128 131 232 7 11 7 19 0 23 -6 3 -13 -2 -17 -12 -4 -10 -20 -37 -35 -59
-57 -84 -162 -304 -219 -459 -40 -105 -70 -170 -88 -190 -16 -16 -34 -41 -41
-55 -12 -23 -13 -23 -20 -5 -4 11 -4 47 1 80 4 33 10 150 13 261 6 257 45 506
90 577 14 22 31 87 23 87 -2 0 -18 -30 -34 -67z m312 -633 c-33 -33 -64 -60
-69 -60 -6 0 16 27 49 60 33 33 64 60 69 60 6 0 -16 -27 -49 -60z m-1025 -20
c14 -11 29 -20 34 -20 15 0 116 -70 116 -81 0 -9 -91 33 -114 52 -6 6 -26 19
-43 29 -18 11 -33 24 -33 30 0 15 12 12 40 -10z m-59 -10 c31 -25 12 -26 -21
0 -14 11 -20 20 -14 20 7 0 22 -9 35 -20z m346 -82 c66 -57 119 -112 134 -140
14 -26 19 -29 -76 46 -75 60 -143 136 -121 136 8 0 36 -19 63 -42z m653 25 c0
-4 -15 -21 -32 -38 -18 -17 -59 -61 -91 -98 -50 -57 -87 -83 -87 -61 0 12 185
203 198 204 6 0 12 -3 12 -7z m-705 -39 c8 -13 56 -58 105 -100 90 -76 119
-115 58 -75 -18 12 -46 29 -62 38 -41 25 -159 104 -169 113 -13 11 22 60 38
54 8 -3 21 -17 30 -30z m-165 1 c65 -33 65 -63 0 -78 -32 -8 -49 3 -56 34 -3
13 -8 34 -11 47 -7 29 6 28 67 -3z m351 -58 c34 -30 86 -107 72 -107 -3 0 -28
24 -56 53 -77 83 -88 119 -16 54z m-221 -23 c57 -36 45 -41 -32 -12 -45 17
-52 23 -43 37 9 16 16 14 75 -25z m-140 -35 c0 -6 -4 -7 -10 -4 -5 3 -10 11
-10 16 0 6 5 7 10 4 6 -3 10 -11 10 -16z m140 -4 c14 -8 19 -14 12 -15 -25 0
-102 23 -109 33 -8 13 63 0 97 -18z m-3 -46 c146 -40 242 -94 111 -62 -35 8
-93 21 -130 29 -79 17 -114 29 -123 43 -10 18 58 13 142 -10z m383 -45 c0 -14
-21 -19 -33 -8 -8 8 16 33 26 27 4 -2 7 -11 7 -19z m140 11 c-7 -8 -16 -15
-21 -15 -5 0 -6 7 -3 15 4 8 13 15 21 15 13 0 13 -3 3 -15z m-725 -44 c22 -7
46 -15 54 -17 9 -3 11 -8 5 -14 -15 -15 -174 50 -174 71 0 5 17 1 38 -9 20
-11 55 -25 77 -31z m210 20 c28 -5 65 -13 83 -16 17 -4 32 -11 32 -16 0 -13
-14 -11 -77 7 -30 9 -75 19 -100 22 -26 4 -48 12 -50 19 -3 8 5 9 29 3 18 -5
56 -13 83 -19z m641 4 c-11 -8 -25 -15 -30 -15 -6 0 -2 7 8 15 11 8 25 15 30
15 6 0 2 -7 -8 -15z m-366 -5 c0 -5 -2 -10 -4 -10 -3 0 -8 5 -11 10 -3 6 -1
10 4 10 6 0 11 -4 11 -10z m-317 -33 c-23 -10 -53 -4 -53 11 0 4 17 6 38 4 34
-4 35 -6 15 -15z m82 -7 c17 -7 15 -9 -12 -9 -18 -1 -33 4 -33 9 0 12 17 12
45 0z m225 -10 c0 -12 -27 -12 -55 0 -16 7 -13 9 18 9 20 1 37 -3 37 -9z
m-277 -19 c18 -6 18 -7 0 -23 -24 -21 -60 -31 -68 -18 -3 5 -15 10 -27 10 -17
0 -18 3 -8 14 17 22 70 30 103 17z m-168 -15 c0 -5 -10 -12 -22 -17 -15 -6
-26 -2 -39 12 -18 20 -18 20 21 17 22 -2 40 -7 40 -12z m380 3 c95 -1 27 -15
-87 -18 -58 -1 -98 2 -98 8 0 16 23 21 75 16 28 -3 77 -5 110 -6z m-85 -40
c-31 -12 -165 -20 -153 -9 7 8 63 15 143 18 33 1 33 0 10 -9z m93 -16 c-7 -2
-21 -2 -30 0 -10 3 -4 5 12 5 17 0 24 -2 18 -5z m756 -19 c2 -2 -19 -4 -48 -4
-32 0 -50 4 -46 10 5 9 83 4 94 -6z m-864 -3 c-7 -12 -150 -44 -167 -38 -14 5
52 25 122 37 25 4 46 8 48 9 2 0 1 -3 -3 -8z m590 -26 c17 -7 23 -14 15 -14
-8 0 -28 6 -45 14 -16 7 -23 14 -15 14 8 0 29 -6 45 -14z m22 -127 c10 -11 -9
-4 -42 17 -77 46 -95 66 -28 30 29 -15 60 -36 70 -47z"/>
<path d="M1027 3220 c-19 -96 -22 -144 -7 -135 6 3 10 24 10 45 0 22 5 62 11
89 6 28 9 59 7 68 -2 10 -11 -20 -21 -67z"/>
<path d="M1070 3028 c0 -89 2 -159 4 -157 9 11 15 319 6 319 -6 0 -10 -62 -10
-162z"/>
<path d="M1011 3000 c0 -43 2 -51 10 -37 7 12 8 30 1 55 -10 37 -10 37 -11
-18z"/>
<path d="M1760 2199 c-47 -4 -170 -11 -275 -14 -104 -3 -191 -8 -194 -10 -2
-3 76 -5 174 -5 173 0 374 13 445 30 33 7 32 8 -15 7 -27 0 -88 -4 -135 -8z"/>
<path d="M568 2133 c7 -3 16 -2 19 1 4 3 -2 6 -13 5 -11 0 -14 -3 -6 -6z"/>
<path d="M1380 1917 c0 -4 28 -25 63 -48 84 -58 177 -139 177 -156 0 -8 5 -11
10 -8 18 11 -23 65 -77 101 -29 19 -55 39 -58 44 -4 6 -21 17 -38 25 -18 8
-42 22 -54 31 -13 9 -23 14 -23 11z"/>
</g>
</svg>
